<svg width="281" height="40" fill="none" xmlns="http://www.w3.org/2000/svg"><g clip-path="url(#a)" fill="#fff"><path d="M39.96 18.279c2.634-.593 6.882-2.852 6.882-7.85v-.593c0-4.569-3.12-9.085-14.785-9.085H.607L9.69 9.836h17.743c3.171 0 4.087 1.185 4.087 2.74v.107c0 1.509-.916 2.798-4.087 2.798H15.34l8.98 8.979h4.084c3.924 0 4.731 1.555 4.731 3.277v.163c0 1.157-.422 2.492-2.27 3.103l8.958 8.958c7.04-1.685 9.334-5.92 9.334-10.775v-.642c-.003-7.04-5.648-9.406-9.197-10.265zM96.168 24.998v-.86H80.36c-.148.62-.748 3.407-4.776 5.144l9.554 9.553c9.191-3.662 11.029-10.213 11.029-13.837zM80.306 16.881h15.862v-.699C96.168 11.022 92.619 0 68.318 0H66.22c-7.478 0-12.98 1.11-17.068 2.852l9.435 9.435c2-.945 4.75-1.533 8.547-1.533 11.61-.002 12.85 5.048 13.171 6.127zM100.26 2.097c.01.559-.189 1.048-.6 1.47-.412.424-.891.629-1.437.618-.546.01-1.028-.194-1.444-.618-.417-.422-.62-.911-.609-1.47-.01-.562.192-1.056.609-1.478.416-.422.898-.63 1.444-.616.546-.013 1.025.194 1.436.616.412.422.611.913.601 1.478zm-.896 1.177c.316-.323.474-.72.474-1.188a1.62 1.62 0 0 0-.474-1.183 1.543 1.543 0 0 0-1.141-.481c-.45 0-.834.163-1.147.487a1.633 1.633 0 0 0-.468 1.18c0 .463.158.857.468 1.183a1.52 1.52 0 0 0 1.147.491c.445 0 .826-.163 1.141-.489zm-.675-.942.593.82h-.55l-.532-.709h-.306v.71h-.492V1.03h.855c.225 0 .411.065.559.194.144.13.22.3.22.515a.641.641 0 0 1-.347.593zm-.795-.87v.557h.355a.295.295 0 0 0 .207-.075.256.256 0 0 0 .08-.194.28.28 0 0 0-.08-.207.277.277 0 0 0-.207-.08h-.355zM110.404 39.967h-1.957V2.399L110.404 0v39.967zM118.588 15.709l5.622-12.435h2.019l5.57 12.435h-2.739l-.864-2.11h-6.039l-.882 2.11h-2.687zm6.616-9.336-2.252 5.37h4.47l-2.218-5.37zM142.359 3.272v2.197h-7.136v10.237h-2.451V3.272h9.587zM153.442 13.6v2.109h-9.786V3.272h9.768v2.11h-7.317V8.41h7.19V10.5h-7.19v3.1h7.335V13.6zM157.623 3.272v5.135h6.613V3.272h2.451v12.434h-2.451v-5.099h-6.613v5.1h-2.452V3.271h2.452zM179.717 3.272v2.197h-4.721v10.237h-2.452V5.472h-4.721V3.274h11.894v-.002zM190.44 11.202h2.524c-.168 1.742-.73 2.974-1.685 3.694-.955.72-2.444 1.082-4.46 1.082-2.223 0-3.833-.471-4.83-1.416-.996-.942-1.496-2.627-1.496-5.055 0-1.286.132-2.358.396-3.217.264-.86.678-1.527 1.243-2.001a4.915 4.915 0 0 1 1.956-1c.741-.19 1.649-.289 2.731-.289 1.957 0 3.414.344 4.369 1.035.955.691 1.522 1.877 1.703 3.56h-2.523c-.145-.987-.482-1.637-1.01-1.957-.528-.319-1.377-.477-2.542-.477-.722 0-1.294.05-1.721.145a2.78 2.78 0 0 0-1.172.585c-.355.295-.603.733-.748 1.315-.145.582-.218 1.349-.218 2.298 0 .914.075 1.66.225 2.234.151.577.399 1.015.748 1.315.35.3.741.502 1.173.603.432.101 1.002.153 1.711.153 1.178 0 2.042-.173 2.596-.523.556-.342.898-1.038 1.03-2.084zM205.471 3.272v2.197h-4.722v10.237h-2.451V5.472h-4.721V3.274h11.894v-.002zM215.04 9.256v.163c1.731.228 2.596 1.154 2.596 2.775 0 1.214-.35 2.101-1.046 2.666-.696.564-1.76.846-3.189.846h-6.794V3.272h6.541c1.465 0 2.523.261 3.17.784.647.523.974 1.39.974 2.604 0 .686-.202 1.25-.604 1.695-.401.445-.952.746-1.648.901zm-2.288-3.875h-3.694v3.135h3.73c.696 0 1.214-.127 1.55-.378.337-.254.505-.673.505-1.26 0-.588-.15-.987-.45-1.191-.303-.202-.849-.306-1.641-.306zm.217 4.975h-3.911v3.243h3.947c.746 0 1.294-.124 1.649-.37s.531-.662.531-1.253c0-.623-.161-1.05-.479-1.278-.319-.228-.898-.342-1.737-.342zM228.269 15.672c-.782.205-1.742.306-2.884.306-1.141 0-2.107-.101-2.894-.306-.787-.204-1.462-.55-2.026-1.045-.565-.492-.976-1.157-1.235-1.99-.259-.837-.388-1.877-.388-3.127 0-1.287.137-2.358.414-3.218.277-.859.707-1.527 1.289-2a5.133 5.133 0 0 1 2.019-1c.763-.191 1.703-.29 2.821-.29 1.105 0 2.04.096 2.803.29a5.207 5.207 0 0 1 2.027 1c.587.473 1.02 1.141 1.297 2 .277.86.414 1.931.414 3.218 0 1.25-.132 2.293-.396 3.126-.264.836-.678 1.499-1.243 1.99a4.941 4.941 0 0 1-2.018 1.046zm-4.714-2.01c.463.1 1.072.152 1.83.152s1.364-.052 1.82-.153a2.93 2.93 0 0 0 1.234-.603c.365-.3.624-.74.774-1.315.15-.577.225-1.322.225-2.233 0-.95-.075-1.714-.225-2.299-.15-.582-.411-1.02-.784-1.315a2.955 2.955 0 0 0-1.235-.585c-.45-.095-1.053-.145-1.811-.145-.769 0-1.38.044-1.83.135-.451.09-.862.285-1.235.585-.373.3-.634.743-.784 1.325-.15.583-.226 1.349-.226 2.299 0 .926.076 1.674.226 2.244.15.57.409 1.007.774 1.307.37.297.784.5 1.247.6zM122.012 24.9v5.135h6.613V24.9h2.452v12.434h-2.452v-5.099h-6.613v5.1h-2.451V24.9h2.451zM144.179 37.334h-3.156l-4.938-5.73h2.956c.818 0 1.423-.181 1.819-.541.396-.36.596-.986.596-1.874 0-.852-.176-1.429-.531-1.73-.354-.3-.994-.45-1.918-.45h-3.533v10.328h-2.451V24.9h6.344c1.61 0 2.777.32 3.505.965.727.642 1.089 1.704 1.089 3.181 0 1.26-.321 2.24-.965 2.928-.642.69-1.639 1.043-2.982 1.053l4.165 4.307zM152.037 30.504v1.982h-6.631v-1.982h6.631zM164.777 24.9v2.197h-4.721v10.237h-2.452V27.097h-4.721V24.9h11.894zM175.7 35.225v2.11h-9.787V24.9h9.768v2.11h-7.317v3.028h7.191v2.091h-7.191v3.1h7.336v-.004zM186.133 37.334l-3.261-4.648-3.261 4.648h-3.101l4.739-6.253-4.452-6.181h3.028l3.083 4.56 3.119-4.56h2.938l-4.434 6.199 4.703 6.235h-3.101zM192.728 24.9v5.135h6.613V24.9h2.451v12.434h-2.451v-5.099h-6.613v5.1h-2.451V24.9h2.451zM212.984 37.298c-.781.204-1.742.305-2.883.305-1.142 0-2.107-.1-2.894-.305-.787-.205-1.462-.551-2.026-1.046-.565-.492-.976-1.157-1.235-1.99-.259-.836-.388-1.877-.388-3.127 0-1.286.137-2.358.414-3.217.277-.86.706-1.527 1.289-2a5.132 5.132 0 0 1 2.019-1c.763-.191 1.703-.29 2.821-.29 1.105 0 2.04.096 2.803.29a5.241 5.241 0 0 1 2.027 1c.587.473 1.02 1.14 1.297 2 .276.86.414 1.93.414 3.217 0 1.25-.132 2.293-.396 3.127-.264.833-.679 1.498-1.243 1.99-.564.495-1.237.841-2.019 1.046zm-4.71-2.009c.463.101 1.071.153 1.83.153.758 0 1.364-.052 1.819-.153a2.934 2.934 0 0 0 1.235-.603c.365-.3.624-.74.774-1.315.15-.577.225-1.322.225-2.233 0-.95-.075-1.714-.225-2.299-.15-.582-.412-1.02-.785-1.314a2.952 2.952 0 0 0-1.234-.585c-.451-.096-1.054-.145-1.812-.145-.769 0-1.38.044-1.83.134a2.84 2.84 0 0 0-1.235.585c-.372.3-.634.743-.784 1.325-.15.583-.225 1.349-.225 2.299 0 .926.075 1.674.225 2.244.15.57.409 1.007.774 1.307.37.298.784.497 1.248.6zM221.42 29.872c0 2.788-.246 4.729-.741 5.821-.491 1.093-1.358 1.641-2.596 1.641h-.719v-2.146c.492 0 .859-.17 1.1-.515.241-.341.411-.916.515-1.72.101-.806.153-2.012.153-3.622V24.9h9.786v12.434h-2.469V27.097h-5.029v2.775zM240.089 37.298c-.781.204-1.742.305-2.883.305-1.142 0-2.107-.1-2.894-.305-.787-.205-1.462-.551-2.027-1.046-.564-.492-.975-1.157-1.234-1.99-.259-.836-.388-1.877-.388-3.127 0-1.286.137-2.358.414-3.217.277-.86.706-1.527 1.289-2a5.132 5.132 0 0 1 2.019-1c.763-.191 1.703-.29 2.821-.29 1.105 0 2.04.096 2.803.29a5.241 5.241 0 0 1 2.027 1c.587.473 1.02 1.14 1.296 2 .277.86.415 1.93.415 3.217 0 1.25-.132 2.293-.396 3.127-.264.833-.679 1.498-1.243 1.99-.564.495-1.237.841-2.019 1.046zm-4.71-2.009c.463.101 1.071.153 1.829.153.759 0 1.365-.052 1.82-.153a2.934 2.934 0 0 0 1.235-.603c.365-.3.624-.74.774-1.315.15-.577.225-1.322.225-2.233 0-.95-.075-1.714-.225-2.299-.15-.582-.412-1.02-.785-1.314a2.952 2.952 0 0 0-1.234-.585c-.451-.096-1.054-.145-1.812-.145-.769 0-1.38.044-1.83.134a2.84 2.84 0 0 0-1.235.585c-.372.3-.634.743-.784 1.325-.15.583-.225 1.349-.225 2.299 0 .926.075 1.674.225 2.244.15.57.409 1.007.774 1.307.37.298.784.497 1.248.6zM255.084 24.9v2.197h-7.136v10.237h-2.451V24.9h9.587zM258.814 24.9v8.469l6.921-8.47h1.765v12.435h-2.451v-8.399l-6.976 8.4h-1.695V24.9h2.436zM271.861 24.9v8.469l6.922-8.47h1.765v12.435h-2.451v-8.399l-6.976 8.4h-1.695V24.9h2.435zm3.137-.668c-1.177 0-2.018-.21-2.523-.631-.505-.42-.756-1.07-.756-1.947h1.874c0 .337.109.577.324.72.217.145.577.217 1.081.217.492 0 .847-.072 1.064-.217.218-.145.324-.383.324-.72h1.874c0 .878-.254 1.527-.756 1.947-.505.421-1.341.631-2.506.631z"/></g><defs><clipPath id="a"><path fill="currentColor" transform="translate(.606)" d="M0 0h280v40H0z"/></clipPath></defs></svg>