<svg width="1440" height="714" fill="none" xmlns="http://www.w3.org/2000/svg"><mask id="a" style="mask-type:luminance" maskUnits="userSpaceOnUse" x="56" y="14" width="1361" height="686"><path d="M1416.95 14.54H56.75v685.179h1360.2V14.539z" fill="#fff"/></mask><g mask="url(#a)"><mask id="b" style="mask-type:luminance" maskUnits="userSpaceOnUse" x="56" y="14" width="1361" height="686"><path d="M1416.5 14.979H56.99v684.53H1416.5V14.979z" fill="#fff"/></mask><g mask="url(#b)"><path d="M1201.63 63.748c.12.91.03 1.88-.32 2.84-.02.05-.03.11-.05.11l66.17 37.19 137.07-80.33c-.06-.11-.12-.27-.17-.43l-202.7 40.62zm-8.82 79.53c.31.11.63.16.93.27 1.11.38 2.01 1.07 2.7 1.93l69.4-40.68-65.33-36.7c-1.12 1.56-2.9 2.52-4.79 2.58l-2.91 72.6zm-176.6 36.94a6.124 6.124 0 0 1-1.06 3.71l95.9 84.58 76.52-114.5c-.92-.8-1.57-1.88-1.9-3.01l-169.46 29.22zm4.11 85.3c.66.02 1.34.13 2 .37 3.21 1.16 4.86 4.71 3.69 7.92a6 6 0 0 1-1.16 1.94l41.41 51.26c.04-.03.08-.04.13-.06l-54.86-140.48c-.01 0-.01 0-.02.01l8.81 79.04zm-590.94-118.97-25.62 49.02a6.264 6.264 0 0 1 2.63 4.54l143.09 9.44c.05-.27.16-.54.21-.8l-120.31-62.2zm-92.89-28.81c-.43.21-.86.43-1.29.54l21.1 93.43 37.8-10.34c-.11-.93 0-1.91.32-2.85.32-.93.86-1.73 1.56-2.37l-59.49-78.41zm-239.63-13.47c-.05.59-.16 1.23-.38 1.88-.27.7-.64 1.4-1.18 1.93l20.89 23.72 85-36.76c-.05-.11-.05-.21-.11-.38l-104.22 9.61zm-28.25 48.08 46.01-19.91-20.51-23.29c-1.61 1.02-3.65 1.34-5.58.64l-21.21 41.05c.49.44.92.92 1.29 1.51zm83.92 26.46c.27-.75.64-1.41 1.18-1.96l-37.96-43.17-46.55 20.12c.21.59.27 1.23.27 1.88l83.28 22.36-.22.77zm13.43 89.95c.59.03 1.18.15 1.77.36 1.45.52 2.52 1.5 3.22 2.7l41.5-17.37-50.63-68.47c-.59.41-1.24.72-1.93.91l6.07 81.87zm123.06 90.07c.11-.11.21-.22.32-.32l-75.92-102.73-41.83 17.52c.32 1.19.27 2.49-.16 3.75-.11.25-.21.48-.32.7l117.91 81.08zm90.26 3.19c.05-.44.16-.89.32-1.33.11-.37.27-.72.48-1.06l-22.34-17.63-58.1 19.73c.05.13.05.27.11.41l79.53-.12zm445.76 98.74-146.74-38.42-95.14 87.45c.32.47.59.98.75 1.52l241.13-50.55zm106.68 11.96c.05-.22.11-.45.2-.67.37-1 .97-1.86 1.72-2.52l-37.57-55.65-56.47 45.84c.59.93.91 2 .91 3.11l91.21 9.89zm97.7 66.07-87.12-60.48c-.46.52-1.01.93-1.61 1.27l42.11 107.7 46.62-48.49zm85.37 61.13c.05-.26.13-.52.21-.77.09-.25.21-.49.32-.72l-84.58-58.72-46.51 48.37 130.56 11.84zm37.07 89.58c.57-.72 1.29-1.29 2.09-1.69l-28.47-82.51a6.211 6.211 0 0 1-6.79 1.77 6.196 6.196 0 0 1-4.06-5.56l-128.74-11.68 165.97 99.67zm104.42-22.35c-.1-.84-.03-1.72.24-2.58l-45-20.7-49.77 45.89c.28.4.52.83.7 1.29l93.83-23.9zm23.09-83.01c-.02-.01-.03-.01-.05-.02-.69-.25-1.3-.62-1.85-1.07l-64.7 59.66 44.39 20.42a6.192 6.192 0 0 1 5.75-2.87l16.46-76.12zm112.66-244.05c-.41-.7-.68-1.48-.79-2.29l-96.07.63 7.23 65.96c.67.01 1.34.13 1.99.36.87.32 1.63.82 2.24 1.43l85.4-66.09zm-3.35-160.74c-.54-.05-1.09-.16-1.62-.35-.9-.33-1.67-.84-2.29-1.49l-65.95 49.7 75.61 104.33c.57-.31 1.2-.54 1.85-.65l-7.6-151.54zm-236.86 125.13a6.201 6.201 0 0 1 4.63-1.49l33.16-147.8c-.03 0-.06-.05-.1-.05-.21-.05-.42-.16-.62-.27l-76.64 114.7 39.57 34.91zm-78.4 23.23c.72.63 1.28 1.42 1.64 2.29l74.71-20.05a6.1 6.1 0 0 1 1.01-4.28l-39.42-34.76-37.94 56.8zm-50.35-50.56 16.6 56.38 23.57-2.11c.06-.4.16-.79.3-1.19.32-.88.83-1.64 1.45-2.26l-41.34-51.17c-.18.13-.38.24-.58.35zm-207.27-58.59 17.07 93.86c.81-.04 1.61.08 2.42.36 1.88.68 3.22 2.18 3.81 3.95l175.01-44.03c-.13-.77-.11-1.57.07-2.37l-194.57-55.23c-.75 1.72-2.14 2.93-3.81 3.46zm-12.35 7.05 6.23-8.47c-1.72-1.64-2.42-4.2-1.56-6.57.48-1.26 1.29-2.28 2.31-2.97l-36.51-71.62 29.53 89.63zm-117.58-3.87 65.51 65.81a6.303 6.303 0 0 1 3.54-1.27l13.69-153.84c-.27-.05-.54-.11-.75-.21-.54-.16-.97-.43-1.4-.7l-80.59 90.21zm-41.19-43.96c-.21.62-.54 1.17-.91 1.67l40.97 41.17 80.54-90.11c-.32-.38-.59-.75-.81-1.18l-119.57 44.93a6.09 6.09 0 0 1-.22 3.52zm-83.33 35.2a7.91 7.91 0 0 1-1.23 2.04l61.75 68.19c1.02-.7 2.2-1.09 3.44-1.11l12.08-100.44c-.21-.05-.43-.11-.59-.18a6.037 6.037 0 0 1-3.22-2.69l-72.11 30.43c.37 1.19.31 2.5-.12 3.76zm-155.33-10.24a6.437 6.437 0 0 1-1.77 2.58l48.32 77.01 97.35-68.9c-.32-.72-.54-1.5-.59-2.3l-143.04-9.43c-.06.35-.11.7-.27 1.04zm-23.79 123.75c.21-.02.43-.03.59-.03l5.48-41.49 10.36-78.38c-.21-.05-.38-.1-.54-.17-1.77-.63-3.01-1.95-3.65-3.53l-37.85 10.34 25.61 113.26zm-50.84-208.38c-.59-.21-1.13-.48-1.61-.86l-89.18 123.56c.64.6 1.13 1.33 1.5 2.12l112.65-30.81-21.16-93.63c-.7 0-1.45-.11-2.2-.38zm-118.18-23.61c-.11.32-.16.64-.27.97-.7 1.93-2.31 3.27-4.19 3.81l10.9 56.02 107.71-42.39c-.05-.43 0-.86.05-1.29l-26.85-4.02-87.35-13.1zm17.23 152.44c-.32-1.19-.32-2.5.11-3.75.16-.43.38-.84.64-1.2l-68.03-56.87 50.79 68.72 16.49-6.9zm7.9 4.23c-1.29.43-2.68.45-4.08-.05a6.197 6.197 0 0 1-3.22-2.7l-16.11 6.75 74.2 100.39-50.79-104.39zm138.42 82.69c-.21-1.08-.16-2.22.27-3.33.05-.11.11-.23.16-.33l-130.74-77.94 111.57 87.98 18.74-6.38zm7.3 22.92-1.5-17.96c-.59-.03-1.23-.15-1.83-.37-1.56-.56-2.74-1.7-3.44-3.07l-17.77 6.04 21.53 17c.86-.84 1.88-1.39 3.01-1.64zm85.48-34.77L389 332.628c0 .71-.11 1.42-.38 2.13a6.101 6.101 0 0 1-4.46 3.91l1.5 17.97c.59.03 1.23.15 1.83.36 1.34.48 2.36 1.38 3.06 2.48l79.04-37.18c0-.09-.05-.2-.05-.29zm109.59 185.24 29.69-97.64c-2.9-1.31-4.35-4.68-3.28-7.74.05-.14.11-.28.21-.42l-125.47-77.15c-.32.43-.75.82-1.18 1.14l96.81 182.11c1.01-.37 2.09-.49 3.22-.3zm37.96-100.95a6.203 6.203 0 0 1-6.77 3.77l-29.69 97.64c.54.24 1.02.54 1.45.9l94.39-86.75-59.38-15.56zm109.69-30.66c-.27-.41-.54-.85-.7-1.32l-108.57 28.86c.05.52.05 1.06 0 1.59l60.35 15.8 48.92-44.93zm102.45 83.85-93.26-82.83a6.132 6.132 0 0 1-6.23 1.22c-.7-.25-1.34-.62-1.88-1.07l-48.16 44.24 149.16 39.06c.1-.22.21-.42.37-.62zm6.33-135.21c-.54.23-1.07.38-1.66.44l.21 24.15.97 107.96c.43.06.91.16 1.34.32.86.31 1.56.76 2.15 1.33l56.59-45.93-59.6-88.27zm146.14 18.02c-.59-.97-.92-2.09-.92-3.24l-77.8-10.1-22.86-2.97-41.12-5.33v.04c-.43 1.15-1.13 2.09-2.04 2.78l59.45 88.06 85.29-69.24zm-42.63 125.84 45.04-123.6c-.52-.27-1-.6-1.41-1l-85.39 69.33 37.66 55.78c1.23-.62 2.68-.83 4.1-.51zm112.01 48.13-107.86-39.26 87.32 60.62 20.54-21.36zm65.37 80.62-55.11-73.46a6.193 6.193 0 0 1-5.15.43 6.18 6.18 0 0 1-4.03-6.42l-20.3 21.11 84.36 58.57.23-.23zm159.04-16.92-148.51 21.21c.01.64-.08 1.28-.28 1.91l84.52 38.9 65.19-60.1c-.42-.58-.73-1.23-.92-1.92zm-38.04-104.27c-.51-.18-.97-.43-1.4-.72l-4.37 4.83 43.63 84.86-34.28-88.76c-1.14.27-2.38.23-3.58-.21zm10.65-136.97c-.06.46-.16.91-.32 1.36a6.3 6.3 0 0 1-1.27 2.09l52.47 63.17c.57-.36 1.19-.63 1.85-.79l-7.25-66.12-45.48.29zm36.66-80.79c-.57-.01-1.14-.1-1.7-.27l-37.83 75.05c1.59.98 2.63 2.62 2.87 4.43l45.31-.3-8.65-78.91zm106.8 76.92c.12-.34.28-.65.44-.95l-102.73-77.8a6.04 6.04 0 0 1-2.94 1.67l8.67 79.06 96.23-.63c.06-.45.16-.91.33-1.35zm-101.31-86.14a6.18 6.18 0 0 1 .44 5.16c-.12.34-.28.65-.45.95l102.73 77.8.16-.16-75.6-104.3-27.28 20.55zm-6.16-66.68c-.57.31-1.19.53-1.84.65l3.27 62.94c.49.05.98.16 1.47.34.9.33 1.67.84 2.29 1.49l27.31-20.57-32.5-44.85zm98.98-7.86-95.78 3.04c-.05.5-.15 1.01-.33 1.51-.34.94-.89 1.74-1.57 2.37l32.49 44.81 65.93-49.68c-.37-.62-.62-1.32-.74-2.05zm-107.55-.11a6.176 6.176 0 0 1 7.73-3.25c2.18.79 3.64 2.68 3.98 4.81l91.53-2.9-178.2-21.72 74.96 23.06zm-27.23 36.15 28.07-29.7a6.154 6.154 0 0 1-1.3-4.94l-77.71-23.93c-.22.54-.5 1.07-.84 1.5l51.78 57.07zm-173.13 124.25c-.05.13-.1.25-.16.38l38.66 23.43 37.69-44.98c-.49-.54-.89-1.16-1.17-1.82l-74.71 20.05c.14.96.05 1.96-.31 2.94zm-12.18 78.26c.41-.06.84-.09 1.26-.07l3.66-74.31c-.23-.05-.45-.11-.67-.2-2.29-.83-3.77-2.87-4.02-5.13l-23.08 2.07 22.85 77.64zm-44.31-135.05-28.26 56.28c1.33.89 2.23 2.25 2.57 3.77l45.08-4.05-16.48-55.97c-.93.21-1.93.22-2.91-.03zm-179.3 41.41 103.93 13.5 37.68 4.89c.04-.18.1-.36.17-.53a6.183 6.183 0 0 1 7.84-3.72l28.2-56.16a6.08 6.08 0 0 1-2.61-2.84l-175.19 44.07c-.02.26-.02.53-.02.79zm-79.94-31.09c1.45 1.4 2.15 3.48 1.83 5.54l66.2 22.78a6.215 6.215 0 0 1 3.06-3.31l-27.65-83.99-43.44 58.98zm-129.35-3.78c.81.96 1.29 2.14 1.45 3.4l78.12 1.95 39.63.99c0-.07.05-.14.05-.21.21-.62.54-1.17.91-1.66l-65.4-65.74-54.76 61.27zm-72.38-67.57 23.36 80.31 38.18-8.19c-.05-.86.05-1.75.38-2.62.21-.71.64-1.35 1.07-1.88l-61.8-68.22c-.38.24-.76.44-1.19.6zm51.17 181.68-28.94-99.5-98.26 21.07c.05.86-.05 1.76-.38 2.62-.05.14-.11.27-.16.42l125.43 77.16c.65-.77 1.45-1.37 2.31-1.77zm117.16-28.36c.16-.41.32-.8.54-1.15l-35.12-27.6-74.79 59.58c.16.27.32.56.43.86l108.62-28.88c-.11-.92-.06-1.88.32-2.81zM943 470.958l81.36-35.92-35.87-90c-.92.24-1.91.26-2.88.04l-45.04 123.6c1.03.54 1.86 1.34 2.43 2.28zm109.82 44.25a6.16 6.16 0 0 1 2.48-2.55l-30.35-76.14-81.3 35.89c.29.99.34 2.04.1 3.09l109.07 39.71zm143.03-101.64c-1.11.4-2.31.48-3.51.2l-68.6 181.61.18.55c.14.08.27.17.4.25l105.44-116.63-33.91-65.98zm37.91 54.21c.34-.92.87-1.71 1.54-2.34l-36.31-49.24 31.92 62.09 3.96-4.39a6.196 6.196 0 0 1-1.11-6.12zm62.38-56.58-54.76-1.41-.91 53.99c.41.06.82.16 1.22.31.67.24 1.26.59 1.78 1.01l53.82-50.91c-.64-.87-1.03-1.9-1.15-2.99zm-57.55-78.38a6.216 6.216 0 0 1 5.18-.75l29.23-57.97-34.41 58.72zm41.13-77.66-117.91 52.21c.37 1.22.36 2.57-.11 3.86a6.159 6.159 0 0 1-2.87 3.32l33.48 87.21c1.14-.27 2.37-.23 3.57.2.11.04.19.08.29.12l85.12-145.29c-.63-.44-1.16-1-1.57-1.63zm-118.55 50.76 117.85-52.18c-.43-1.28-.45-2.7.05-4.07.26-.72.65-1.36 1.12-1.91l-31.93-35.19-87.58 92.66c.18.21.35.44.49.69zm27.76 97.99a6.14 6.14 0 0 1 1.88-1.57l-33.48-87.21a6.17 6.17 0 0 1-4.78-.8l-37.54 44.79 73.92 44.79zm-120.44 10.74c.74.81 1.26 1.8 1.49 2.87l117.6-10.02c.03-.61.14-1.24.37-1.85.05-.13.1-.26.16-.38l-74.11-44.92-45.51 54.3zm-75.73-73.47c-.23.64-.56 1.22-.97 1.72l68.75 70.79c.29-.19.6-.36.92-.5l-22.94-77.94-45.39 4.07c-.03.61-.14 1.24-.37 1.86zm65.17 79.05c-.26-1.13-.21-2.34.21-3.51.24-.65.57-1.23.98-1.74l-68.5-70.96c-.22.16-.45.31-.68.43l35.86 89.95 32.13-14.17zm-.07 91.67 4.95-87c-.33-.06-.65-.14-.97-.26a6.197 6.197 0 0 1-3.35-2.92l-32.09 14.17 30.38 76.19c.35-.1.71-.16 1.08-.18zm59.85 84.02c.15-.09.28-.16.43-.23l-31.11-100.01-23.47 19.12c.96 1.55 1.23 3.51.55 5.36-.33.9-.85 1.67-1.49 2.31l15.4 20.53 39.69 52.92zm71.8-183.67-101.15 82.36 31.29 100.59c.79-.16 1.62-.14 2.45.03l68.74-182.02c-.49-.26-.94-.59-1.33-.96zm-119.75 8.69a6.113 6.113 0 0 1-3.23 3.49l21.32 68.54 100.66-81.95c-.37-.6-.63-1.25-.79-1.94l-117.6 10.02c-.02.62-.14 1.24-.36 1.84zm-5.32 4.04-4.99 87.01c.32.06.65.14.97.26.82.3 1.54.76 2.14 1.32l23.97-19.51-21.51-69.15c-.2.04-.39.06-.58.07zm173.21-82.59a6.168 6.168 0 0 1-1.84-4.83l-30.11 51.39 31.95-46.56zm2.22 1.39c-.33-.12-.64-.27-.93-.44l-41.05 59.82a6.218 6.218 0 0 1 2.02 3.96l39.92 1.03 1.08-64.11c-.36-.05-.71-.13-1.04-.26zm-.99 119.99.91-54.02-39.92-1.03a6 6 0 0 1-.3 1.16 6.09 6.09 0 0 1-1.54 2.35l38.55 52.27c.71-.4 1.49-.65 2.3-.73zm-478.11-168.71a6.353 6.353 0 0 1-3.92 3.33l22.71 47.73 48-25.07c-.43-.99-.64-2.08-.48-3.18l-66.31-22.81zm-131.07-2.38a6.226 6.226 0 0 1-4.24 1.77l-5.26 43.1-7.3 60.45c.21.05.38.11.59.18.86.31 1.56.78 2.15 1.36l74.53-59.34-60.47-47.52zm119.31.65c-.05-.39-.05-.78-.05-1.19l-117.48-2.93c-.05.4-.16.78-.27 1.17-.16.37-.32.72-.48 1.04l60.73 47.76 57.55-45.85zm-16.43 72.62 17.93-69.38c-.43-.48-.75-1.01-1.02-1.59l-56.75 45.21 34.85 27.4c1.34-1.25 3.16-1.87 4.99-1.64zm45.58-19.1-22.93-48.22c-.75.01-1.5-.1-2.2-.37a5.82 5.82 0 0 1-1.18-.56l-17.72 68.66c1.13.45 2.04 1.19 2.68 2.1l41.35-21.61zm-167.73 51.03c.27-.05.59-.06.86-.07l7.46-61.27 5.1-42.29c-.21-.05-.38-.11-.59-.18a6.219 6.219 0 0 1-3.7-3.74l-38.07 8.16 28.94 99.39zm-57.02-181.21c-.43-.16-.81-.35-1.18-.59l-72.49 99.85c.7.68 1.23 1.51 1.61 2.43l98.15-21.06-23.36-80.29c-.91.09-1.82-.02-2.73-.34zm516.08 121.86-3.67 74.43c.08.03.16.04.24.07.43.16.84.36 1.21.6l45.35-54.11-38.45-23.3a6.24 6.24 0 0 1-4.68 2.31zm209.54-156.11c-.55-.2-1.06-.48-1.51-.81l-28.16 29.79 32.02 35.29c.76-.52 1.64-.87 2.56-1.02l-3.26-62.89c-.56-.05-1.11-.16-1.65-.36zm17.45 226.03c.29-.8.73-1.51 1.28-2.09l-52.47-63.17c-.84.53-1.8.86-2.8.93l-1.07 64.07 54.78 1.41c.04-.38.13-.76.28-1.15zm-20.84 167.75a6.178 6.178 0 0 1 2.3-2.97l-47.39-92.17-105.05 116.19c.59.69 1.01 1.49 1.25 2.36l148.51-21.21c0-.73.11-1.47.38-2.2zM832.5 349.978l-.21-25.29c-.43-.06-.81-.16-1.18-.3a6.213 6.213 0 0 1-2.74-1.98l-48.11 25.14 52.14 109.54c.38-.11.7-.2 1.07-.25l-.97-106.86zm-1.5 107.8-52.14-109.49-41.29 21.58c.54 1.35.59 2.87.05 4.33-.16.45-.38.87-.64 1.26l93.32 82.85c.22-.2.43-.37.7-.53zm-442.7-128.03c.21.41.38.84.48 1.29l80.54-10.63c0-.71.11-1.42.38-2.13.38-1.07 1.07-1.97 1.88-2.65l-19.49-31.05-63.79 45.17zm-146.1-82.32c-.05.11-.11.23-.16.33l47.25 28.18 88.7 52.88c.7-.91 1.66-1.58 2.68-1.97l-25.55-113.17-112.65 30.79c.16.96.05 1.97-.27 2.96zm-7.78-7.98-15.95-81.95-54.28 21.38c.43 1.29.48 2.75-.05 4.14-.05.2-.16.4-.21.6l68.3 57.15c.63-.59 1.38-1.04 2.19-1.32zm-29.43-140.33c-.27-.05-.48-.21-.75-.32l-42.36 77.08c.64.43 1.18.98 1.56 1.59l54.77-21.52-11.01-56.45c-.7-.01-1.46-.12-2.21-.38zm122.74 15.4-107.76 42.39 16 82.24c.86-.05 1.66.05 2.52.36.27.1.54.24.81.37l89.34-123.75c-.37-.54-.69-1.08-.91-1.61zm72.49 92.28-10.36 78.86-5.43 41.02c.16.04.32.1.54.16.91.35 1.77.91 2.42 1.62l63.84-45.2-48.32-77.06c-.81.39-1.72.6-2.69.6zm53.16 76.89 19.54 31.12c1.4-.65 3.11-.77 4.67-.19.32.11.59.24.86.39l72.54-99.93c-.11-.09-.16-.18-.21-.27l-97.4 68.88zm185.56-101.86-12.03 100.45c.21.05.38.11.59.19.48.18.97.42 1.4.71l54.82-61.37-41.08-41.24c-1.07.8-2.36 1.25-3.7 1.26zm131.28-49.23-13.75 153.83c.27.06.54.13.81.22.32.11.59.25.86.4l44.14-59.88-31.14-94.68c-.33.06-.65.11-.92.11zm41.61 85.89a4.55 4.55 0 0 1-.86-.41l-6.93 9.39 26.31 79.96-16.11-88.57c-.8.04-1.6-.08-2.41-.37zm379.34-62.97-33.16 147.81c.55.2 1.06.47 1.51.8l87.67-92.75-51.82-57.1c-1.19.86-2.67 1.34-4.2 1.24zm-32.35 532.01c.7.25 1.31.62 1.84 1.07l49.29-45.45-82.89-38.14 28.39 82.27a6.3 6.3 0 0 1 3.37.25zm-802.57-346.69-115.55-91.12c-.32.28-.59.52-.91.74l51.87 106.64c1.29-.43 2.68-.45 4.08.05 1.56.57 2.74 1.7 3.44 3.08l57.07-19.39zm-238.99-207.81 37.64 42.76c1.56-1.06 3.65-1.38 5.53-.68l.05.01 42.47-77.24c-.48-.43-.86-.91-1.13-1.4l-84.56 36.55zm895.75 52.86 54.86 140.47c1.15-.29 2.41-.25 3.6.19.22.08.42.17.63.27l38.06-56.97-96.06-84.72c-.34.29-.7.54-1.09.76zm184.27-39.07c.31.7.49 1.45.53 2.25l185.37 22.59c.05-.19.11-.39.18-.58.03-.06.06-.13.08-.19l-116-65.17-70.16 41.1zm211.27-119.72c-.16-.05-.33-.05-.49-.16-1.14-.38-2.07-1.13-2.76-1.99l-136.27 79.85 115.19 64.7a6.181 6.181 0 0 1 5-2.48l19.33-139.92zm7.44-3.81a6.1 6.1 0 0 1-5.86 4.02l-19.34 139.93c.16.04.33.09.49.14 3.21 1.16 4.86 4.72 3.69 7.92a6.174 6.174 0 0 1-4.7 3.96l7.58 151.54c.54.04 1.09.16 1.62.35 3.21 1.16 4.86 4.71 3.69 7.92-1.17 3.2-4.72 4.85-7.93 3.69-.87-.32-1.62-.81-2.24-1.43l-85.4 66.1c.9 1.53 1.13 3.43.48 5.23a6.18 6.18 0 0 1-7.93 3.69c-.67-.25-1.26-.6-1.78-1.02l-53.82 50.91a6.19 6.19 0 0 1 .82 5.75 6.196 6.196 0 0 1-2.86 3.31l37.46 97.01c1.14-.28 2.38-.24 3.57.2 3.21 1.16 4.86 4.71 3.69 7.92-.97 2.68-3.61 4.26-6.32 4.04l-16.45 76.13c.02.01.03.01.05.01a6.173 6.173 0 0 1 3.69 7.92 6.18 6.18 0 0 1-7.93 3.69 6.138 6.138 0 0 1-3.62-3.52l-93.84 23.9c.11.93.02 1.91-.32 2.85a6.184 6.184 0 0 1-7.93 3.69 6.173 6.173 0 0 1-3.69-7.92c.04-.12.1-.24.15-.35l-168.4-101.14-.42.44-.35-.91-2.74-1.65 2.17.2-42.09-107.65c-1.15.29-2.4.24-3.61-.19a6.18 6.18 0 0 1-4.06-5.67l-91.19-9.88c-.05.21-.16.44-.21.66a6.202 6.202 0 0 1-7.95 3.69c-2.9-1.06-4.51-4.11-3.92-7.06l-244.03 51.14c.05.85 0 1.73-.32 2.59a6.206 6.206 0 0 1-7.95 3.69c-3.22-1.16-4.83-4.71-3.7-7.92a6.568 6.568 0 0 1 2.26-2.92l-96.85-182.11c-1.34.5-2.85.55-4.3.03a6.22 6.22 0 0 1-3.06-2.48l-79.04 37.19c.38 1.26.43 2.66-.05 4a6.202 6.202 0 0 1-7.95 3.69c-2.26-.82-3.7-2.79-4.03-5l-79.52.13c-.05.45-.16.89-.32 1.33-1.13 3.2-4.72 4.85-7.89 3.69-3.22-1.16-4.89-4.71-3.7-7.92.11-.24.21-.48.32-.7l-117.91-81.09c-1.61 1.82-4.3 2.57-6.71 1.69-3.22-1.17-4.89-4.72-3.7-7.92.75-2.09 2.52-3.51 4.56-3.93l-6.07-81.8c-.7-.01-1.4-.12-2.09-.37-2.95-1.07-4.56-4.16-3.87-7.15l-83.12-22.27c-.05.11-.05.21-.11.38-1.18 3.17-4.72 4.83-7.95 3.65-3.17-1.13-4.83-4.72-3.65-7.89 1.13-3.22 4.67-4.88 7.89-3.7.21.05.38.16.54.21l21.21-40.89a6.176 6.176 0 0 1-2.31-7.19c1.18-3.17 4.73-4.83 7.95-3.65 2.04.75 3.44 2.47 3.92 4.45l104.22-9.55c.05-.64.16-1.29.38-1.88a6.19 6.19 0 0 1 7.95-3.7c2.36.86 3.87 3.01 4.03 5.37l17.5 2.63 97.02 14.54c1.18-3.11 4.67-4.72 7.84-3.54a6.102 6.102 0 0 1 3.7 7.89 6.62 6.62 0 0 1-1.56 2.36l59.44 78.41c1.56-.83 3.38-1.03 5.1-.39v.01l26.36-50.41 121.78 62.92a6.186 6.186 0 0 1 7.19-2.29c1.4.52 2.52 1.49 3.22 2.69l72.06-30.43c-.32-1.2-.32-2.51.16-3.76 1.13-3.21 4.67-4.86 7.89-3.69 1.5.54 2.63 1.61 3.33 2.91l119.63-44.93c-.27-1.13-.21-2.36.21-3.49 1.13-3.22 4.67-4.88 7.89-3.7 3.22 1.18 4.89 4.72 3.7 7.89-.48 1.29-1.29 2.31-2.31 3.01l38.44 75.32c1.29-.47 2.74-.5 4.19.01 2.79 1.02 4.4 3.87 3.97 6.71l194.56 55.22-.21.77c.73-2.01 2.4-3.41 4.33-3.89l-8.81-79.04c-.67-.02-1.34-.13-2-.37-3.21-1.16-4.86-4.71-3.69-7.92 1.17-3.2 4.72-4.85 7.93-3.69 1.89.69 3.23 2.2 3.78 3.98l169.52-29.23c-.01-.7.1-1.45.37-2.2.86-2.36 3.03-3.86 5.41-4.02l2.9-72.66c-.25-.05-.49-.16-.74-.21a6.195 6.195 0 0 1-3.69-7.94c1.17-3.22 4.72-4.83 7.93-3.7 1.72.64 2.98 1.93 3.61 3.49l202.79-40.57c-.06-.8.05-1.72.35-2.52 1.17-3.22 4.72-4.88 7.93-3.7 3.21 1.15 4.86 4.69 3.7 7.91z" fill="#DADADA"/></g></g><path d="M611.61 410.789a6.78 6.78 0 1 0 0-13.56 6.78 6.78 0 0 0 0 13.56zM626.09 295.56a6.78 6.78 0 1 0-.001-13.561 6.78 6.78 0 0 0 .001 13.561zM1065.37 425.425c3.72-.369 6.45-3.688 6.08-7.414a6.783 6.783 0 0 0-7.42-6.079c-3.72.369-6.44 3.688-6.08 7.414a6.783 6.783 0 0 0 7.42 6.079zM1286.71 578.395a6.781 6.781 0 0 0-6.6-6.956 6.78 6.78 0 1 0-.36 13.556 6.787 6.787 0 0 0 6.96-6.6zM1285.17 258.57c3.74 0 6.78-3.036 6.78-6.78 0-3.745-3.04-6.78-6.78-6.78a6.783 6.783 0 0 0-6.78 6.78c0 3.744 3.04 6.78 6.78 6.78zM1191.29 156.06c3.74 0 6.78-3.036 6.78-6.78s-3.04-6.78-6.78-6.78a6.783 6.783 0 0 0-6.78 6.78c0 3.744 3.04 6.78 6.78 6.78zM1010.04 187.378c3.74 0 6.78-3.035 6.78-6.78 0-3.744-3.04-6.78-6.78-6.78a6.783 6.783 0 0 0-6.78 6.78c0 3.745 3.04 6.78 6.78 6.78zM556.37 217.679a6.78 6.78 0 1 0 0-13.56 6.78 6.78 0 0 0 0 13.56zM577.97 520.099a6.78 6.78 0 1 0 0-13.56 6.78 6.78 0 0 0 0 13.56zM1281.34 183.399c3.74 0 6.78-3.009 6.78-6.72s-3.04-6.72-6.78-6.72-6.78 3.009-6.78 6.72 3.04 6.72 6.78 6.72zM1156.15 315.628c3.74 0 6.78-3.035 6.78-6.78 0-3.744-3.04-6.78-6.78-6.78a6.783 6.783 0 0 0-6.78 6.78c0 3.745 3.04 6.78 6.78 6.78zM1126.64 601.928a6.782 6.782 0 0 0-13.56-.356 6.782 6.782 0 0 0 13.56.356zM382.13 338.759a6.78 6.78 0 1 0 0-13.56 6.78 6.78 0 0 0 0 13.56zM814.01 219.359a6.78 6.78 0 1 0 0-13.56 6.78 6.78 0 0 0 0 13.56z" fill="#E41714"/></svg>