<svg xmlns="http://www.w3.org/2000/svg" xmlns:xlink="http://www.w3.org/1999/xlink"><defs><style>
    .sprite-symbol-usage {display: none;}
    .sprite-symbol-usage:target {display: inline;}
  </style><symbol fill="none" viewBox="0 0 32 32" id="X"><path d="M16 17.867 9.465 24.4c-.245.244-.556.367-.934.367-.377 0-.688-.123-.933-.367-.244-.244-.367-.556-.367-.933 0-.378.123-.69.367-.934L14.132 16 7.6 9.467c-.244-.245-.367-.556-.367-.934 0-.377.123-.689.367-.933.245-.244.556-.367.933-.367.378 0 .69.123.934.367l6.533 6.533L22.532 7.6c.245-.244.556-.367.934-.367.377 0 .689.123.933.367.244.244.367.556.367.933 0 .378-.122.69-.367.934L17.866 16l6.533 6.533c.244.245.367.556.367.934 0 .377-.122.689-.367.933-.244.244-.556.367-.933.367-.378 0-.69-.123-.934-.367L16 17.867z" fill="currentColor" /></symbol><symbol fill="none" viewBox="0 0 24 24" id="arrow"><path d="M11.3 19.3a.994.994 0 0 1-.288-.7.905.905 0 0 1 .263-.7l4.9-4.9H5a.968.968 0 0 1-.713-.288A.964.964 0 0 1 4 12c0-.283.096-.521.288-.713A.964.964 0 0 1 5 11h11.175l-4.9-4.9a.91.91 0 0 1-.263-.7.988.988 0 0 1 .288-.7.948.948 0 0 1 .7-.275c.283 0 .517.092.7.275l6.6 6.6a.68.68 0 0 1 .213.313 1.19 1.19 0 0 1 0 .762.865.865 0 0 1-.213.325l-6.6 6.6a.948.948 0 0 1-.7.275.948.948 0 0 1-.7-.275z" fill="currentColor" /></symbol><symbol fill="none" viewBox="0 0 24 24" id="arrow-outward"><path d="m16 8.4-8.875 8.9c-.2.2-.438.3-.713.3a.97.97 0 0 1-.712-.3c-.2-.2-.3-.438-.3-.713 0-.275.1-.513.3-.712L14.6 7H7a.968.968 0 0 1-.713-.288A.964.964 0 0 1 6 6c0-.283.096-.521.288-.713A.964.964 0 0 1 7 5h10c.283 0 .52.096.713.288.192.192.288.43.287.712v10a.968.968 0 0 1-.288.713A.964.964 0 0 1 17 17a.968.968 0 0 1-.713-.288A.964.964 0 0 1 16 16V8.4z" fill="currentColor" /></symbol><symbol fill="none" viewBox="0 0 24 24" id="checkbox"><path d="m10.6 13.8-2.175-2.175a.918.918 0 0 0-.675-.275c-.267 0-.5.1-.7.3a.948.948 0 0 0-.275.7c0 .283.092.517.275.7L9.9 15.9a.948.948 0 0 0 .7.275.948.948 0 0 0 .7-.275l5.675-5.675a.918.918 0 0 0 .275-.675c0-.267-.1-.5-.3-.7a.948.948 0 0 0-.7-.275.948.948 0 0 0-.7.275L10.6 13.8zM12 22a9.733 9.733 0 0 1-3.9-.788 10.114 10.114 0 0 1-3.175-2.137c-.9-.9-1.612-1.958-2.137-3.175A9.755 9.755 0 0 1 2 12c0-1.383.263-2.683.788-3.9a10.114 10.114 0 0 1 2.137-3.175c.9-.9 1.958-1.612 3.175-2.137A9.755 9.755 0 0 1 12 2c1.383 0 2.683.263 3.9.788a10.114 10.114 0 0 1 3.175 2.137c.9.9 1.613 1.958 2.138 3.175A9.72 9.72 0 0 1 22 12a9.733 9.733 0 0 1-.788 3.9 10.114 10.114 0 0 1-2.137 3.175c-.9.9-1.958 1.613-3.175 2.138A9.72 9.72 0 0 1 12 22z" fill="currentColor" /></symbol><symbol fill="none" viewBox="0 0 24 24" id="chevron"><path d="m11.295 9-4.59 4.59A.996.996 0 1 0 8.115 15l3.89-3.88 3.88 3.88a.996.996 0 1 0 1.41-1.41L12.705 9a.996.996 0 0 0-1.41 0z" fill="currentColor" /></symbol><symbol fill="none" viewBox="0 0 21 20" id="file"><path d="M10.5 12.98a.93.93 0 0 1-.312-.052.722.722 0 0 1-.271-.178l-3-3a.79.79 0 0 1-.23-.583.79.79 0 0 1 .23-.583.838.838 0 0 1 .594-.24.77.77 0 0 1 .593.219l1.563 1.562V4.167c0-.236.08-.434.24-.594.16-.16.358-.24.593-.24.236 0 .434.08.594.24.16.16.24.358.24.594v5.958l1.562-1.562a.772.772 0 0 1 .594-.22.834.834 0 0 1 .594.24.79.79 0 0 1 .229.584.79.79 0 0 1-.23.583l-3 3a.736.736 0 0 1-.27.178.901.901 0 0 1-.313.051zm-5 3.687c-.458 0-.85-.164-1.177-.49A1.602 1.602 0 0 1 3.833 15v-1.666c0-.237.08-.435.24-.595.16-.16.358-.24.594-.239.236 0 .434.08.594.24.16.16.24.358.24.594V15h10v-1.666c0-.237.08-.435.24-.595.16-.16.357-.24.593-.239.236 0 .434.08.594.24.16.16.24.358.239.594V15c0 .459-.164.851-.49 1.178-.327.326-.72.49-1.177.489h-10z" fill="currentColor" /></symbol><symbol fill="none" viewBox="0 0 79 32" id="logo"><path d="M30.802 14.307c2.062-.464 5.387-2.233 5.387-6.145v-.464c0-3.575-2.441-7.11-11.572-7.11H0l7.111 7.11h13.888c2.481 0 3.199.928 3.199 2.146v.083c0 1.181-.718 2.19-3.2 2.19h-9.467l7.028 7.028h3.197c3.072 0 3.704 1.218 3.704 2.565v.127c0 .906-.33 1.951-1.777 2.43l7.012 7.011C36.205 29.96 38 26.645 38 22.844v-.502c-.002-5.51-4.42-7.362-7.198-8.035zM74.797 19.566v-.672H62.425c-.116.484-.586 2.666-3.738 4.025l7.478 7.478c7.194-2.867 8.632-7.994 8.632-10.83zM62.382 13.213h12.415v-.547C74.797 8.626 72.019 0 52.997 0h-1.64c-5.853 0-10.16.87-13.359 2.233l7.385 7.384c1.566-.74 3.717-1.2 6.69-1.2 9.087-.001 10.058 3.951 10.309 4.796zM78 1.641c.008.438-.148.82-.47 1.15-.323.333-.697.493-1.125.485-.427.008-.804-.152-1.13-.484-.326-.33-.485-.713-.476-1.151-.009-.44.15-.827.476-1.157.326-.33.703-.492 1.13-.482.428-.01.802.152 1.125.482.322.33.478.715.47 1.157zm-.701.922a1.28 1.28 0 0 0 .37-.93c0-.367-.123-.675-.37-.926a1.208 1.208 0 0 0-.894-.377c-.352 0-.652.128-.897.381a1.278 1.278 0 0 0-.367.924c0 .363.124.67.367.926.245.257.543.385.897.385.349 0 .647-.128.894-.383zm-.53-.738.465.643h-.43l-.417-.556h-.24v.556h-.384V.806h.668a.64.64 0 0 1 .438.152.515.515 0 0 1 .172.403.502.502 0 0 1-.271.464zm-.621-.68v.435h.277a.23.23 0 0 0 .163-.059.2.2 0 0 0 .062-.151.22.22 0 0 0-.063-.163.217.217 0 0 0-.162-.062h-.277z" fill="currentColor" /></symbol><symbol fill="none" viewBox="0 0 32 32" id="menu"><path d="M5.333 24h21.334C27.4 24 28 23.4 28 22.667c0-.734-.6-1.334-1.333-1.334H5.333c-.733 0-1.333.6-1.333 1.334C4 23.4 4.6 24 5.333 24zm0-6.667h21.334c.733 0 1.333-.6 1.333-1.333s-.6-1.333-1.333-1.333H5.333C4.6 14.667 4 15.267 4 16s.6 1.333 1.333 1.333zM4 9.333c0 .734.6 1.334 1.333 1.334h21.334c.733 0 1.333-.6 1.333-1.334C28 8.6 27.4 8 26.667 8H5.333C4.6 8 4 8.6 4 9.333z" fill="currentColor" /></symbol><symbol fill="none" viewBox="0 0 24 24" id="search"><path d="m21 21-6-6M3 10a7 7 0 1 0 14 0 7 7 0 0 0-14 0z" stroke="currentColor" stroke-width="2" stroke-linecap="round" stroke-linejoin="round" /></symbol><symbol fill="none" viewBox="0 0 27 26" id="star-empty"><path opacity=".298" d="M13.29 18.36 7.5 21.85l1.54-6.59-5.11-4.43 6.74-.58 2.62-6.2 2.63 6.22 6.74.58-5.11 4.43 1.54 6.59-5.8-3.51zm11.78-9.78-7.45-.65-2.91-6.85c-.52-1.25-2.31-1.25-2.83 0L8.97 7.95l-7.43.63c-1.35.11-1.91 1.8-.88 2.69l5.65 4.89-1.69 7.26c-.31 1.32 1.12 2.37 2.29 1.66l6.39-3.85 6.39 3.86c1.17.71 2.6-.34 2.29-1.66l-1.69-7.28 5.65-4.89c1.02-.88.48-2.58-.87-2.68z" fill="currentColor" /></symbol><symbol fill="none" viewBox="0 0 21 19" id="star-full"><path d="m10.58 15.58 4.69 2.83c.86.52 1.91-.25 1.68-1.22l-1.24-5.33 4.14-3.59c.76-.65.35-1.9-.64-1.98l-5.45-.46L11.63.79c-.38-.91-1.69-.91-2.08 0L7.42 5.81l-5.45.46c-.99.08-1.4 1.32-.64 1.98l4.14 3.59-1.24 5.33c-.23.97.82 1.74 1.68 1.22l4.67-2.81z" fill="currentColor" /></symbol><symbol fill="none" viewBox="0 0 20 19" id="star-half"><path d="M9.7 13.48V2.98l1.93 4.56 4.95.43-3.75 3.25 1.13 4.83-4.26-2.57zm8.64-7.19-5.46-.47L10.75.8c-.38-.91-1.69-.91-2.08 0L6.54 5.84l-5.45.46C.1 6.38-.31 7.62.45 8.28l4.14 3.59-1.24 5.33c-.23.97.82 1.74 1.68 1.22l4.69-2.82 4.69 2.83c.86.52 1.91-.25 1.68-1.22l-1.24-5.34 4.14-3.59c.74-.66.35-1.91-.65-1.99z" fill="currentColor" /></symbol></defs><use id="X-usage" xlink:href="#X" class="sprite-symbol-usage" /><use id="arrow-usage" xlink:href="#arrow" class="sprite-symbol-usage" /><use id="arrow-outward-usage" xlink:href="#arrow-outward" class="sprite-symbol-usage" /><use id="checkbox-usage" xlink:href="#checkbox" class="sprite-symbol-usage" /><use id="chevron-usage" xlink:href="#chevron" class="sprite-symbol-usage" /><use id="file-usage" xlink:href="#file" class="sprite-symbol-usage" /><use id="logo-usage" xlink:href="#logo" class="sprite-symbol-usage" /><use id="menu-usage" xlink:href="#menu" class="sprite-symbol-usage" /><use id="search-usage" xlink:href="#search" class="sprite-symbol-usage" /><use id="star-empty-usage" xlink:href="#star-empty" class="sprite-symbol-usage" /><use id="star-full-usage" xlink:href="#star-full" class="sprite-symbol-usage" /><use id="star-half-usage" xlink:href="#star-half" class="sprite-symbol-usage" /></svg>