<svg width="1748" height="1005" fill="none" xmlns="http://www.w3.org/2000/svg"><mask id="a" style="mask-type:luminance" maskUnits="userSpaceOnUse" x="-1" y="0" width="1749" height="1005"><path d="M0 167.463 1663.55 0l84.28 837.303L84.287 1004.77 0 167.463z" fill="#fff"/></mask><g mask="url(#a)"><mask id="b" style="mask-type:luminance" maskUnits="userSpaceOnUse" x="0" y="0" width="1748" height="1005"><path d="M.607 167.944 1663.31.566l84.21 836.509L84.815 1004.45.607 167.944z" fill="#fff"/></mask><g mask="url(#b)"><path d="M269.395 201.088a7.341 7.341 0 0 0 .741 3.431c.03.059.05.131.074.128l-76.352 53.594-177.52-81.289c.06-.142.113-.345.155-.547l252.902 24.683zm20.57 96.101c-.365.173-.75.273-1.104.445-1.31.601-2.326 1.555-3.064 2.691l-89.882-41.168 75.385-52.891c1.562 1.768 3.857 2.722 6.176 2.563l12.489 88.36zm220.529 23.399a7.528 7.528 0 0 0 1.753 4.403L405.365 440.157 297.694 309.656c1.027-1.091 1.689-2.49 1.953-3.912l210.847 14.844zm5.467 104.744a7.876 7.876 0 0 0-2.4.699c-3.784 1.813-5.365 6.354-3.539 10.133.421.871.99 1.616 1.657 2.227L467.34 506.13c-.053-.031-.103-.039-.166-.057l49.813-178.423c.012-.001.012-.002.026.009l-1.052 97.673zm708.099-218.137 37.36 56.749c-1.7 1.48-2.69 3.64-2.66 5.872l-173.84 29.152c-.09-.324-.26-.64-.35-.952l139.49-90.821zm110.06-46.643c.55.204 1.1.42 1.64.501l-14.31 116.771-47.5-7.982c.02-1.15-.24-2.334-.74-3.443a7.105 7.105 0 0 0-2.2-2.704l63.11-103.143zm291.41-45.963c.14.715.35 1.484.7 2.251.41.822.95 1.632 1.68 2.213l-22.63 31.558-108.48-34.456c.05-.141.03-.263.09-.478l128.64-1.088zm40.47 55.277-58.72-18.666 22.22-30.986c2.09 1.048 4.62 1.188 6.9.095l30.99 47.553a8.444 8.444 0 0 0-1.39 2.004zm-99.38 42.666c-.43-.883-.96-1.644-1.69-2.25l41.12-57.428 59.4 18.856c-.18.747-.18 1.537-.1 2.331l-99.1 37.577.37.914zm-5.36 111.574c-.72.11-1.43.329-2.12.658-1.71.814-2.9 2.143-3.61 3.696l-52.89-16.117 53.5-89.905c.77.428 1.6.727 2.47.874l2.65 100.794zm-139.43 125.218c-.15-.121-.28-.243-.43-.351l80.22-134.885 53.31 16.259c-.25 1.494-.02 3.076.66 4.563a16 16 0 0 0 .47.816l-134.23 113.598zm-110 15.011a6.887 6.887 0 0 0-.55-1.586 5.317 5.317 0 0 0-.72-1.236l25.16-24.295 73.48 16.958c-.04.165-.03.336-.08.514l-97.29 9.645zM778.809 639.877l174.74-65.016 127.111 95.153c-.33.613-.6 1.27-.73 1.949l-301.121-32.086zm-129 27.75a5.173 5.173 0 0 0-.327-.794 7.646 7.646 0 0 0-2.413-2.868l39.103-72.631 74.702 49.065a7.105 7.105 0 0 0-.73 3.913l-110.335 23.315zm-111.361 92.767 99.109-84.634c.627.579 1.35 1.012 2.126 1.354L601.43 813.91l-62.982-53.516zm-96.889 85.212a8.42 8.42 0 0 0-.351-.915c-.141-.294-.317-.573-.48-.84l96.219-82.17 62.833 53.383-158.221 30.542zm-34.317 114.033a7.612 7.612 0 0 0-2.764-1.808l24.669-104.334a7.638 7.638 0 0 0 8.522 1.327 7.61 7.61 0 0 0 4.281-7.294l156.015-30.123-190.723 142.232zm-130.457-14.457a7.577 7.577 0 0 0-.611-3.123l52.489-30.836 66.515 49.951a7.56 7.56 0 0 0-.697 1.663l-117.696-17.655zm-38.451-98.597c.023-.014.035-.016.059-.03a7.77 7.77 0 0 0 2.131-1.536l86.468 64.94-51.778 30.419a7.612 7.612 0 0 0-7.385-2.799l-29.495-90.994zM70.527 562.222a7.59 7.59 0 0 0 .684-2.896l117.573-11.058-.728 81.495a7.688 7.688 0 0 0-2.39.685 7.624 7.624 0 0 0-2.563 2.023L70.527 562.222zM54.85 365.382a8.084 8.084 0 0 0 1.938-.627 7.357 7.357 0 0 0 2.618-2.103l86.772 52.615L66.54 552.069a7.38 7.38 0 0 0-2.343-.566L54.85 365.382zm305.077 123.75a7.63 7.63 0 0 0-5.846-1.251L295.344 311.35c.037-.004.067-.069.116-.074.251-.087.494-.247.725-.406L404.027 441.6l-44.1 47.532zm98.742 18.735a7.61 7.61 0 0 0-1.724 3.001l-93.838-15.304a7.482 7.482 0 0 0-.753-3.553 7.701 7.701 0 0 0-1.009-1.553l43.936-47.33 53.388 64.739zm55.359-67.984-13.366 70.941-29.086.324a8.028 8.028 0 0 0-.513-1.418 7.607 7.607 0 0 0-2.052-2.583l44.265-67.62c.236.137.494.246.752.356zm246.288-97.116-9.331 116.8a7.827 7.827 0 0 0-2.915.738c-2.216 1.062-3.67 3.06-4.174 5.296l-219.457-32.259a7.494 7.494 0 0 0-.377-2.888l231.168-91.446c1.129 2.009 2.978 3.317 5.086 3.759zm15.971 7.095-8.661-9.584c1.902-2.216 2.443-5.43 1.1-8.221-.742-1.48-1.859-2.627-3.191-3.345l35.842-92.016-25.09 113.166zm143.326-19.206-72.024 88.487a7.74 7.74 0 0 0-4.485-1.116l-35.668-186.31c.324-.095.647-.201.891-.349.641-.262 1.134-.645 1.626-1.028l109.66 100.316zm44.969-58.791c.333.732.804 1.363 1.318 1.929l-45.042 55.355-109.587-100.201c.345-.504.629-.989.845-1.542l151.764 40.185c-.192 1.414.031 2.885.702 4.274zm106.248 32.756a9.453 9.453 0 0 0 1.75 2.341l-67.13 90.932a7.698 7.698 0 0 0-4.35-.933l-27.125-121.252a4.63 4.63 0 0 0 .699-.292c1.71-.814 2.899-2.132 3.607-3.684l91.939 28.308c-.31 1.5-.07 3.093.61 4.58zm188.71-31.637a7.878 7.878 0 0 0 2.48 2.935l-49.62 100.056-127.54-72.211c.3-.92.48-1.9.44-2.884l173.78-29.134c.12.421.22.842.46 1.238zm44.32 148.296c-.26.001-.53.016-.73.036l-11.81-50.027-22.31-94.506c.25-.087.45-.169.64-.275 2.09-.987 3.44-2.753 4.03-4.763l47.56 7.976-17.38 141.559zm36.54-260.904c.7-.329 1.32-.725 1.86-1.249l124.27 140.013c-.71.812-1.22 1.765-1.57 2.776l-141.56-23.782 14.36-117.022a7.984 7.984 0 0 0 2.64-.736zm141.63-43.401c.18.377.28.762.45 1.152 1.1 2.272 3.23 3.711 5.59 4.14l-6.43 69.799-136.95-38.54c.01-.532-.11-1.051-.22-1.571l32.34-8.218 105.22-26.762zm-2.32 188.405a7.823 7.823 0 0 0-.59-4.569 6.42 6.42 0 0 0-.93-1.387l76.2-77.872-53.66 90.23-21.02-6.402zm-9.14 6.142c1.63.367 3.33.22 4.98-.563a7.63 7.63 0 0 0 3.61-3.696l20.53 6.265-78.39 131.814 49.27-133.82zm-159.12 118.091c.13-1.346-.07-2.733-.74-4.036-.07-.129-.16-.268-.23-.384l150.31-111.34-125.63 121.249-23.71-5.489zm-6.11 28.907-.37-22.132a7.676 7.676 0 0 0 2.19-.678c1.84-.876 3.14-2.414 3.83-4.175l22.48 5.194-24.24 23.425a7.596 7.596 0 0 0-3.89-1.634zm-108.82-31.966 99.81 3.062c.09.868.31 1.722.73 2.557a7.498 7.498 0 0 0 5.93 4.229l.38 22.144c-.72.109-1.49.335-2.19.665-1.58.752-2.72 1.977-3.44 3.408l-101.24-35.704c-.01-.11.03-.251.02-.361zm-111.24 239.859-48.32-115.662c3.38-1.958 4.74-6.255 3.06-9.862a2.076 2.076 0 0 0-.31-.488l143.96-109.726c.44.486 1.02.91 1.58 1.248l-95.99 234.461a7.69 7.69 0 0 0-3.98.029zm-58.84-118.689a7.616 7.616 0 0 0 8.74 3.774l48.32 115.662a7.47 7.47 0 0 0-1.66 1.279l-126.112-94.39 70.712-26.325zm-137.928-23.962c.28-.535.556-1.105.694-1.7l136.334 21.901c0 .642.07 1.302.19 1.943l-71.861 26.738-65.357-48.882zM773.529 638.841 877.398 526.14a7.541 7.541 0 0 0 7.769.723 7.604 7.604 0 0 0 2.168-1.539l64.343 48.133-177.62 66.096a3.525 3.525 0 0 0-.529-.712zm-24.375-164.45a6.864 6.864 0 0 0 2.084.334l2.714 29.537 12.095 132.049a7.983 7.983 0 0 0-1.6.556 7.295 7.295 0 0 0-2.465 1.89l-74.861-49.16 62.033-115.206zm-176.515 40.013a7.673 7.673 0 0 0 .727-4.072l93.908-21.921 27.593-6.444 49.635-11.576.005.049c.667 1.352 1.639 2.415 2.836 3.146l-61.875 114.93-112.829-74.112zm67.618 148.531-70.29-145.497a7.275 7.275 0 0 0 1.602-1.395l112.962 74.209-39.197 72.801a7.54 7.54 0 0 0-5.077-.118zm-131.07 72.606 127.085-61.256-99.336 84.829-27.749-23.573zm-70.031 106.567 58.364-96.554a7.62 7.62 0 0 0 6.351-.109 7.588 7.588 0 0 0 4.139-8.341l27.424 23.297-95.968 81.96-.31-.253zm-196.59-1.096 184.24 7.635a7.32 7.32 0 0 0 .577 2.299l-98.584 57.943-87.122-65.418a7.33 7.33 0 0 0 .889-2.459zm33.697-132.103a7.586 7.586 0 0 0 1.624-1.053l5.938 5.365-42.921 109.072 31.006-112.687a7.638 7.638 0 0 0 4.353-.697zM246.388 542.84c.13.555.308 1.092.559 1.622a7.738 7.738 0 0 0 1.81 2.398l-56.4 83.655a7.634 7.634 0 0 0-2.36-.738l.733-81.692 55.658-5.245zm-54.774-94.214a7.622 7.622 0 0 0 2.046-.539l55.499 87.055a7.566 7.566 0 0 0-2.965 5.767l-55.452 5.212.872-97.495zM70.458 555.773a8.447 8.447 0 0 0-.655-1.107l116.07-107.721a7.424 7.424 0 0 0 3.801 1.679l-.878 97.68-117.768 11.078a7.277 7.277 0 0 0-.57-1.609zm113.308-117.738a7.586 7.586 0 0 0 .096 6.36c.189.401.423.76.667 1.106l-116.07 107.72a33.08 33.08 0 0 1-.215-.175l79.63-136.765 35.892 21.754zm-.669-82.242c.735.308 1.52.501 2.33.568l3.743 77.316a7.39 7.39 0 0 0-1.756.596 7.376 7.376 0 0 0-2.617 2.103l-35.931-21.774 34.231-58.809zm-122.021 2.581 117.514-8.077a7.78 7.78 0 0 0 .589 1.804 7.385 7.385 0 0 0 2.212 2.703l-34.223 58.759-86.745-52.593a7.194 7.194 0 0 0 .653-2.596zm131.521-13.376c-1.972-3.393-6.26-4.752-9.853-3.02a7.547 7.547 0 0 0-4.276 6.368l-112.3 7.725 215.27-48.481-88.841 37.408zm37.75 40.824-37.983-32.838a7.555 7.555 0 0 0 .982-6.197l92.097-38.811c.335.633.743 1.246 1.211 1.73l-56.307 76.116zm227.026 130.52c.077.153.153.294.242.445l-44.399 33.392-51.629-50.327a7.976 7.976 0 0 0 1.207-2.368l93.838 15.304a7.33 7.33 0 0 0 .741 3.554zm24.523 94.136a8.052 8.052 0 0 0-1.549.07l-13.618-90.358c.275-.089.537-.19.795-.327 2.699-1.296 4.258-3.971 4.286-6.764l28.481-.312-18.395 97.691zm37.579-170.489 41.486 65.296a7.537 7.537 0 0 0-2.68 4.924l-55.631.6 13.27-70.425a7.666 7.666 0 0 0 3.555-.395zm224.381 28.529-125.447 29.293-45.482 10.615a4.059 4.059 0 0 0-.273-.627 7.602 7.602 0 0 0-10.046-3.581l-41.398-65.157a7.467 7.467 0 0 0 2.843-3.791l219.681 32.285c.057.316.09.645.122.963zm93.943-47.834c-1.601 1.889-2.201 4.517-1.556 6.995l-78.162 35.988a7.63 7.63 0 0 0-4.149-3.668l23.484-106.042 60.383 66.727zm157.733-20.545c-.873 1.273-1.315 2.774-1.356 4.334l-95.302 12.001-48.346 6.088c-.009-.085-.078-.164-.087-.25-.333-.732-.804-1.363-1.317-1.917l71.898-88.387 74.51 68.131zm80.208-91.483-18.69 101.017-47.7-5.308c-.05-1.057-.28-2.132-.79-3.155-.34-.842-.95-1.571-1.54-2.166l67.19-90.974c.5.246.99.444 1.53.586zm-40.23 228.317 23.15-125.154 122.77 13.65a7.63 7.63 0 0 0 .79 3.155c.07.165.16.317.24.494l-143.91 109.733a8.327 8.327 0 0 0-3.04-1.878zm-146.778-20.232c-.246-.482-.49-.939-.802-1.339l39.557-38.052 98.803 63.6c-.17.35-.33.724-.42 1.104l-136.401-21.919c.021-1.138-.158-2.305-.737-3.394zM635.797 666.865l-103.923-33.878 32.798-114.398a7.493 7.493 0 0 0 3.527-.306l70.29 145.496a7.64 7.64 0 0 0-2.692 3.086zM506.929 734.46a7.577 7.577 0 0 0-3.347-2.811l27.752-96.781 103.847 33.849a7.481 7.481 0 0 0 .257 3.788L506.929 734.46zM319.497 627.863a7.569 7.569 0 0 0 4.318-.188l106.24 213.485-.153.695c-.161.115-.309.24-.458.354L286.142 712.667l33.355-84.804zm-39.695 70.913a7.483 7.483 0 0 0-2.172-2.67l38.351-64.643-31.401 79.805-5.383-4.877a7.607 7.607 0 0 0 .605-7.615zm-83.252-61.462 66.798-8.465 7.755 65.865a7.255 7.255 0 0 0-1.454.529 7.516 7.516 0 0 0-2.053 1.453l-72.085-55.586a7.574 7.574 0 0 0 1.039-3.796zm60.742-102.867a7.644 7.644 0 0 0-6.427-.279l-42.88-67.242 49.307 67.521zm-59.856-89.838 150.629 49.285a7.47 7.47 0 0 0 .609 4.703 7.57 7.57 0 0 0 3.919 3.704l-30.219 110.694a7.7 7.7 0 0 0-4.341.684c-.13.062-.223.121-.34.182L195.716 446.794a7.286 7.286 0 0 0 1.72-2.185zm151.233 47.434-150.551-49.256a7.51 7.51 0 0 0-.562-4.967 7.565 7.565 0 0 0-1.605-2.196l34.722-46.934 118.51 102.449a5.26 5.26 0 0 0-.514.904zm-21.897 123.163a7.55 7.55 0 0 0-2.492-1.687l30.218-110.694a7.592 7.592 0 0 0 5.748-1.566l51.422 50.112-84.896 63.835zm148.622-1.703a7.593 7.593 0 0 0-1.469 3.69l-145.06 2.234a7.481 7.481 0 0 0-.68-2.215 5.39 5.39 0 0 0-.242-.445l85.111-64.017 62.34 60.753zm83.581-99.106c.36.754.835 1.422 1.398 1.983l-75.374 94.971a7.692 7.692 0 0 0-1.187-.498l18.468-98.068 56.014-.615c.111.742.323 1.498.681 2.227zm-69.98 104.624a7.636 7.636 0 0 0-.688-4.263 7.596 7.596 0 0 0-1.413-2.006l75.047-95.148c.289.169.589.324.885.442l-32.792 114.336-41.039-13.361zm11.363 112.014-16.757-105.706a6.845 6.845 0 0 0 1.155-.437 7.616 7.616 0 0 0 3.738-3.981l40.989 13.365-27.782 96.846a6.014 6.014 0 0 0-1.343-.087zm-62.862 110.043a5.446 5.446 0 0 0-.554-.228l25.745-126.045 31.056 20.476a7.53 7.53 0 0 0-.013 6.618 7.794 7.794 0 0 0 2.106 2.639l-16.309 26.984-42.031 69.556zM327.089 625.469l133.84 88.193-25.894 126.775c-.986-.098-1.999.028-2.993.338L325.581 626.806a7.462 7.462 0 0 0 1.508-1.337zm147.525-4.123a7.51 7.51 0 0 0 4.38 3.867l-17.643 86.382-133.19-87.752a7.937 7.937 0 0 0 .727-2.468l145.06-2.234c.1.756.323 1.498.666 2.205zm7.004 4.282 16.806 105.713a7.15 7.15 0 0 0-1.154.437 7.78 7.78 0 0 0-2.455 1.877l-31.716-20.891 17.801-87.151c.249.025.484.026.718.015zm-221.999-79.602a7.568 7.568 0 0 0 1.656-6.129l43.147 59.093-44.803-52.964zm-2.544 1.972c.389-.187.75-.409 1.083-.652l57.564 68.047a7.629 7.629 0 0 0-1.983 5.088l-48.697 6.173-9.207-78.21a5.634 5.634 0 0 0 1.24-.446zm15.971 146.508-7.758-65.901 48.696-6.174c.122.469.292.934.51 1.381a7.491 7.491 0 0 0 2.172 2.682l-40.717 68.621a7.201 7.201 0 0 0-2.903-.609zm563.983-265.03a7.81 7.81 0 0 0 5.204 3.587l-21.903 61.123-61.789-24.727c.404-1.262.527-2.62.196-3.945l78.292-36.038zm160.008-19.045a7.656 7.656 0 0 0 5.403 1.641l11.74 52.021 16.36 72.973c-.25.087-.45.181-.7.292a7.223 7.223 0 0 0-2.46 1.927l-98.453-63.339 68.11-65.515zm-145.838 15.483c.013-.483-.035-.959-.085-1.46l143.319-18.044c.111.482.292.933.474 1.396.242.433.48.841.715 1.212l-68.398 65.84-76.025-48.944zm29.027 86.72-30.463-82.576c.467-.639.793-1.326 1.052-2.068l74.968 48.26-39.252 37.774c-1.793-1.362-4.095-1.896-6.305-1.39zm-58.094-17.729 22.112-61.748c.918-.08 1.822-.307 2.645-.723.508-.224.949-.516 1.374-.83l30.118 81.722a7.307 7.307 0 0 0-3.019 2.896l-53.23-21.317zm211.418 41.71c-.34-.028-.73-.001-1.06.02l-16.67-73.954-11.44-51.052c.26-.087.46-.181.7-.292a7.647 7.647 0 0 0 4.07-5.026l47.56 5.284-23.16 125.02zm47.44-228.462c.51-.249.95-.528 1.37-.867L1183.3 420.38c-.77.917-1.32 1.997-1.67 3.168L1059 409.896l18.69-100.992a7.701 7.701 0 0 0 3.3-.751zM464.807 520.606l13.644 90.503c-.094.046-.191.068-.285.115a7.599 7.599 0 0 0-1.406.882l-62.12-60.54 44.159-33.207c1.555 1.584 3.776 2.41 6.008 2.247zM189.332 355.634a7.465 7.465 0 0 0 1.747-1.176l38.105 32.937-34.82 47.068a7.82 7.82 0 0 0-3.256-.932l-3.75-77.254a7.783 7.783 0 0 0 1.974-.643zm6.463 278.361a7.384 7.384 0 0 0-1.822-2.396l56.401-83.655a7.449 7.449 0 0 0 3.539.792l9.19 78.163-66.824 8.467a5.476 5.476 0 0 0-.484-1.371zm46.124 202.428a7.59 7.59 0 0 0-3.178-3.346l46.62-118.468 142.771 129.053a7.51 7.51 0 0 0-1.238 3.038l-184.24-7.635a7.708 7.708 0 0 0-.735-2.642zm514.139-331.002-2.854-30.931a6.57 6.57 0 0 0 1.406-.512c1.332-.64 2.358-1.608 3.108-2.757l61.932 24.798-50.293 140.28c-.479-.088-.881-.159-1.34-.174l-11.959-130.704zm15.096 131.548 50.299-140.218 53.153 21.288a7.34 7.34 0 0 0 .471 5.298c.251.53.572 1.016.938 1.461l-103.94 112.733a5.169 5.169 0 0 0-.921-.562zm525.676-210.958c-.2.527-.36 1.073-.42 1.635l-99.81-3.074a7.27 7.27 0 0 0-.73-2.556c-.6-1.261-1.55-2.276-2.63-3.007l20.02-40.343 83.57 47.345zm168.56-118.584c.07.128.16.268.24.384l-54.33 40.253-101.97 75.541c-.97-1.026-2.23-1.726-3.52-2.077l17.32-141.442 141.57 23.757c-.08 1.193.18 2.414.69 3.584zm8.53-10.71 9.43-102.108 69.01 19.444c-.36 1.63-.24 3.42.57 5.053.09.239.25.469.34.708l-76.51 78.247a7.499 7.499 0 0 0-2.84-1.344zm18.73-175.109c.33-.094.56-.315.88-.483l61.29 88.978a6.583 6.583 0 0 0-1.71 2.135l-69.63-19.555 6.52-70.338a8.695 8.695 0 0 0 2.65-.737zm-148.22 33.931 137.01 38.534-9.45 102.469a7.546 7.546 0 0 0-3.04.75c-.32.155-.63.36-.94.552l-124.49-140.226c.39-.705.71-1.405.91-2.079zm-77.3 121.692 22.37 95.093 11.69 49.459c-.19.068-.38.161-.64.262-1.07.54-2.05 1.33-2.76 2.277l-83.64-47.375 49.62-100.118c1.04.377 2.17.522 3.36.402zm-55.56 100.506-20.07 40.435a7.521 7.521 0 0 0-5.73.343 6.25 6.25 0 0 0-1 .582l-101.02-113.185c.13-.124.18-.24.23-.356l127.59 72.181zM972.1 276.108l27.07 121.27a5.597 5.597 0 0 0-.698.305 8.398 8.398 0 0 0-1.625 1.04l-74.595-68.246 45.168-55.453a7.705 7.705 0 0 0 4.68 1.084zM805.486 232.11l35.74 186.291a9.948 9.948 0 0 0-.963.368 6.426 6.426 0 0 0-1.003.595l-61.35-67.74 26.438-119.535c.411.033.808.055 1.138.021zm-40.324 110.082a5.606 5.606 0 0 0 1.002-.606l9.63 10.621-22.341 100.952 8.808-110.218a7.551 7.551 0 0 0 2.901-.749zm-471.685-30.247 58.738 176.544a7.457 7.457 0 0 0-1.748 1.163L231.835 387.104l56.353-76.157c1.561.904 3.43 1.308 5.289.998zm105.01 646.143a7.26 7.26 0 0 0-2.119 1.534l-65.873-49.472 96.684-56.813-24.601 104.031a7.746 7.746 0 0 0-4.091.72zM1337.4 435.617l130.11-125.576c.42.303.78.563 1.2.792l-50.32 136.702a7.552 7.552 0 0 0-4.98.564 7.656 7.656 0 0 0-3.83 4.187l-72.18-16.669zm266.72-283.371-40.77 56.888c-2.04-1.104-4.64-1.237-6.85-.151l-.06.019-61.44-89.16c.53-.585.94-1.218 1.21-1.85l107.91 34.254zM515.106 327.123l-49.815 178.411a7.5 7.5 0 0 0-4.38.676 8.788 8.788 0 0 0-.737.407l-53.556-64.932 107.061-115.356c.452.312.923.573 1.427.794zm-230.172-25.057a7.7 7.7 0 0 0-.371 2.814L60.631 355.308a7.959 7.959 0 0 0-.291-.687 1.83 1.83 0 0 1-.122-.222l133.853-93.921 90.863 41.588zM11.82 181.776c.19-.081.397-.102.58-.256 1.347-.604 2.392-1.635 3.13-2.771l176.483 80.801-132.92 93.246a7.603 7.603 0 0 0-6.42-2.415L11.82 181.776zm-9.568-3.74a7.497 7.497 0 0 0 7.661 4.191L50.78 350.843c-.19.069-.392.151-.582.232-3.783 1.813-5.363 6.366-3.539 10.132a7.585 7.585 0 0 0 6.236 4.261l9.371 186.118a7.61 7.61 0 0 0-1.938.627c-3.783 1.813-5.365 6.354-3.539 10.133 1.825 3.766 6.37 5.345 10.153 3.533a7.558 7.558 0 0 0 2.563-2.024l112.577 70.262a7.554 7.554 0 0 0 .057 6.45c1.825 3.779 6.358 5.359 10.152 3.533a7.81 7.81 0 0 0 2.052-1.466l72.085 55.587a7.6 7.6 0 0 0-.296 7.128 7.618 7.618 0 0 0 3.905 3.693l-33.88 123.159a7.494 7.494 0 0 0-4.342.684c-3.783 1.813-5.364 6.354-3.538 10.133 1.516 3.156 4.939 4.761 8.226 4.159l29.484 91.007a.103.103 0 0 1-.06.018 7.58 7.58 0 0 0-3.538 10.133c1.825 3.779 6.358 5.359 10.152 3.533a7.542 7.542 0 0 0 3.994-4.747l117.708 17.653a7.65 7.65 0 0 0 .742 3.443c1.826 3.779 6.371 5.358 10.153 3.533a7.58 7.58 0 0 0 3.538-10.133c-.063-.141-.152-.281-.226-.409L601.964 816.88l.568.486.316-1.155 3.148-2.353-2.629.511 38.234-136.732a7.643 7.643 0 0 0 4.392-.677 7.589 7.589 0 0 0 4.267-7.428l110.312-23.301c.087.251.25.518.338.781a7.625 7.625 0 0 0 10.177 3.53c3.416-1.652 5.01-5.577 3.926-9.11l304.747 32.45c.04 1.045.21 2.114.71 3.126 1.83 3.777 6.38 5.357 10.17 3.53 3.8-1.814 5.33-6.35 3.55-10.134a8.036 8.036 0 0 0-3.12-3.29l96.05-234.465c1.7.446 3.55.321 5.26-.493a7.64 7.64 0 0 0 3.44-3.407l101.24 35.715c-.31 1.587-.2 3.304.55 4.882a7.628 7.628 0 0 0 10.18 3.531c2.66-1.281 4.18-3.865 4.31-6.606l97.27-9.632c.12.544.31 1.068.56 1.586 1.77 3.771 6.37 5.346 10.1 3.538 3.8-1.814 5.4-6.358 3.55-10.134-.16-.28-.31-.561-.47-.816l134.23-113.61c2.19 2.026 5.57 2.611 8.41 1.239 3.8-1.826 5.4-6.37 3.55-10.134-1.17-2.462-3.51-3.979-6.06-4.241l-2.64-100.709c.86-.098 1.7-.319 2.51-.709 3.48-1.671 5.07-5.645 3.86-9.214l98.91-37.448c.08.129.09.251.19.451 1.83 3.729 6.36 5.321 10.17 3.482 3.74-1.771 5.32-6.363 3.49-10.091-1.78-3.796-6.31-5.389-10.1-3.55-.25.087-.45.242-.64.323l-30.97-47.357a7.576 7.576 0 0 0 1.94-9.071c-1.83-3.729-6.38-5.32-10.17-3.482-2.4 1.168-3.9 3.442-4.25 5.921l-128.63 1.161c-.14-.776-.36-1.557-.7-2.251a7.612 7.612 0 0 0-10.18-3.542 7.56 7.56 0 0 0-4.27 7.058l-21.08 5.368-116.86 29.713c-1.83-3.655-6.3-5.193-10.03-3.36-3.8 1.777-5.4 6.308-3.55 10.097a8.015 8.015 0 0 0 2.2 2.692l-63.06 103.136c-2.01-.822-4.26-.842-6.28.152v.012l-38.44-58.357-141.2 91.883c-2.18-2.558-5.85-3.435-9.07-1.914a7.656 7.656 0 0 0-3.61 3.684l-91.875-28.314c.244-1.506.083-3.107-.658-4.575-1.777-3.784-6.309-5.364-10.103-3.538-1.768.844-3.019 2.291-3.715 3.966l-151.837-40.177a7.409 7.409 0 0 0-.686-4.239c-1.778-3.796-6.312-5.388-10.105-3.55s-5.399 6.37-3.554 10.097c.746 1.517 1.862 2.664 3.195 3.394l-37.747 96.775c-1.635-.415-3.412-.274-5.123.528-3.287 1.59-4.905 5.271-4.03 8.689l-231.157 91.433.351.915a7.598 7.598 0 0 0-5.774-4.22l1.052-97.673a7.807 7.807 0 0 0 2.4-.699c3.783-1.813 5.365-6.354 3.539-10.132-1.825-3.767-6.369-5.346-10.153-3.533a7.559 7.559 0 0 0-4.133 5.329l-210.922-14.849a7.621 7.621 0 0 0-.723-2.643c-1.342-2.778-4.18-4.344-7.111-4.247l-12.485-88.435c.3-.091.58-.255.879-.347a7.607 7.607 0 0 0 3.537-10.157c-1.828-3.791-6.367-5.322-10.154-3.546a7.603 7.603 0 0 0-3.986 4.71L16.696 174.496a7.502 7.502 0 0 0-.738-3.036c-1.827-3.791-6.373-5.383-10.154-3.545-3.784 1.8-5.367 6.329-3.552 10.121z" fill="#DADADA"/></g></g><path d="M1033.68 552.538c-4.58.461-8.66-2.875-9.13-7.45-.46-4.576 2.88-8.659 7.46-9.12 4.58-.461 8.67 2.874 9.13 7.45.46 4.576-2.88 8.659-7.46 9.12zM1001.8 413.509c-4.582.461-8.668-2.875-9.128-7.451-.461-4.576 2.878-8.659 7.458-9.12 4.58-.461 8.67 2.875 9.13 7.451.46 4.576-2.88 8.659-7.46 9.12zM480.529 626.289c-4.603.008-8.34-3.713-8.347-8.312-.007-4.599 3.718-8.333 8.32-8.341 4.603-.008 8.34 3.713 8.347 8.312.007 4.599-3.718 8.333-8.32 8.341zM228.644 840.473c-.581-4.563 2.65-8.732 7.216-9.313 4.566-.582 8.739 2.646 9.32 7.208.58 4.562-2.65 8.732-7.216 9.313-4.566.582-8.739-2.646-9.32-7.208zM191.183 449.45c-4.58.461-8.666-2.875-9.126-7.45-.461-4.576 2.878-8.659 7.458-9.12 4.579-.461 8.665 2.874 9.126 7.45.46 4.576-2.879 8.659-7.458 9.12zM293.389 312.622c-4.58.461-8.666-2.875-9.126-7.45-.461-4.576 2.878-8.659 7.458-9.12 4.579-.461 8.665 2.874 9.126 7.45.46 4.576-2.879 8.659-7.458 9.12zM518.913 328.579c-4.579.461-8.665-2.875-9.126-7.45-.461-4.576 2.879-8.659 7.458-9.12 4.58-.461 8.666 2.874 9.126 7.45.461 4.576-2.878 8.659-7.458 9.12zM1077.49 309.753c-4.58.461-8.67-2.875-9.13-7.451-.46-4.575 2.88-8.659 7.46-9.12 4.58-.461 8.66 2.875 9.13 7.451.46 4.576-2.88 8.659-7.46 9.12zM1088.27 681.976c-4.58.461-8.66-2.875-9.13-7.451-.46-4.576 2.88-8.659 7.46-9.12 4.58-.461 8.67 2.875 9.13 7.451.46 4.575-2.88 8.659-7.46 9.12zM186.618 357.12c-4.579.461-8.662-2.842-9.119-7.377-.456-4.536 2.886-8.586 7.466-9.047 4.579-.461 8.662 2.842 9.118 7.377.457 4.536-2.885 8.586-7.465 9.047zM355.993 503.292c-4.579.461-8.665-2.875-9.126-7.451-.461-4.575 2.879-8.659 7.458-9.12 4.58-.461 8.666 2.875 9.126 7.451.461 4.576-2.878 8.659-7.458 9.12zM427.307 849.524c-.581-4.563 2.65-8.732 7.216-9.314 4.566-.581 8.739 2.647 9.32 7.209.581 4.562-2.65 8.732-7.216 9.313-4.566.581-8.739-2.646-9.32-7.208zM1305.48 436.263a8.324 8.324 0 0 1-9.12-7.451c-.47-4.576 2.87-8.659 7.45-9.12 4.58-.461 8.67 2.875 9.13 7.451.46 4.576-2.88 8.659-7.46 9.12zM762.595 343.526c-4.58.461-8.666-2.874-9.126-7.45-.461-4.576 2.878-8.659 7.458-9.12 4.579-.461 8.665 2.875 9.126 7.45.46 4.576-2.879 8.659-7.458 9.12z" fill="#E41714"/></svg>