<svg width="32" height="21" fill="none" xmlns="http://www.w3.org/2000/svg"><path d="m.543 5.67.743.164.382.743 1.093-.186.655-.502.677.316.525-.895.6-.153.186-.568-.48-.263.688-.775.655.72 1.038-.381.721.513 2.065.448 1.529-1.29 1.977-.338.787-1.256 1.627-.36.514-.405 1.638-.109 1.19.295 1.06-.72.83-.066 2.622 1.835 1.388.382.218.47-.044.612-.699.425.098.863 1.726.58 1.027-.896.721.644-.186.885.58.612-.274.338-.797-.273-.219 1.027.82.448-.12.568.633.82.58-.034.502.765 1.19.448-.13.393-.733-.032.317.753-.579.754.634 1.092-.252.601.481 2.108.918.852.076.634-.655 1.737-.492.338-.437-.699-.393.525-1.245.404-.262-.754-1.42-.513-.47-1.093-.186.481-1.256-.11-.208-.382-.568.142-.513-1.201-1.093.12-.076.896.284.338-1.508.634.11-.404-1.027-1.267-1.234-.437-.841-.983-.044-1.573-.503.076-.786-.666.022-1.016-.59.317-.58-.12-1.321.873-2.414.175-1.551 1.3-.688-.35.174-.535-.295.175-.775-.59-1.125.503-.273-.798-.984-1.103-.633-.186-1.879.175-.743 1.103-.84-.01-.383-1.3-.557-.186-.776-1.322.044-.83.666-.24-.098-1.17-.743-1.332.077-.666-.481-.197.022-.841.35-.044z" fill="#FF0037" stroke-width="1" stroke="currentColor"/></svg>