<svg width="11" height="13" fill="none" xmlns="http://www.w3.org/2000/svg"><path d="m2.257 3.829-.01.01.48.438.6-.197-.185-.153.208.317-.94.23-.339-.307.34-.174-.46.12-.032-.317-.437.317.775-.328v.044zm6.86-.983.328.01L9.106 3l.011-.153zm-7.09 8.16.034-.426.568-.284-1.333-1.279-.426-.819.087-.94.94-.13.306.819.677-.11.699.328-.448-.36.371-.131-.35-1.748 1.039-.273.72-.612h.754l-.109-.47-.557.24.262-.381.219.142-.175-1.257-.393.306-.099-.426.46.098.207-.557-.317.12-.164-.349.623-.36-.58-1.158.656.043-.24.536.295.491.852-.437-.131-.48.437-.186-.131.633 1.048.175 1.147.983.044 1.104 1.005.513-.033.546-.382-.043-.11-.437-.327.098-1.038 1.54-1.06.23-.152.72.25.437-.524.24-.065.492-.71-.622-.404.185-.164.328.754.754-.514.732.175.295-.35-.022.186.906-.688.415-.35-.513-.01.251-.438-.164-.393.295.066.907-.47.24-.36.044-.153.055-.656-.885.011-.011.011-.022-.033-.055-.022-.021h-.01l-.088-.197.055-.076zM5.786.552l.132.022-.678.338.24-.338.306-.022zM3.546.825l-.12-.721.459-.077.612.547-.437.098-.066.382-.448-.23z" fill="#FF0037" stroke-width="1" stroke="currentColor"/></svg>