<svg width="40" height="38" fill="none" xmlns="http://www.w3.org/2000/svg"><path d="m0 14.288 1.486-1.813-.448-.36.6-.82-.36-.71 1.486-.448-.295-.71.393-1.103-.787.054.099-1.06.579.383.251-.579.197.23.437-.328.087.306.371-.503.656.394.12.972.448-.252 1.78.448.317.514.426-1.093.743.142 1.551-1.168.732.174.164-.382 2.119-1.07-.044-.295 1.584.72.798-.043-.088-1.42.295-.437-.076-.688-.415-.405.972-.568 1.147.437.699-.502.437.207.579-.786-.044-1.06L20.274 0l1.453 1.147.732.164.557 1.475 1.792-.219.863 1.005-.645.153.448 1.671-.688.645.48.218-.273.262.295.558.448-.022v.83l.371.087-.371 1.77.579.841.404-.077-.207.448.382 1.563.524.72-.327.208.13.24 1.017.011.819.787 1.682-.273-.207.218.37-.087-.207.393.558.82 1.18.141.556-.316-.295.415.262.84 1.104-.032.12.415.306-.6 1.016-.066.655-.667 1.19.131.176 1.344 1.31 1.081-.273 1.857.863-.01.252.404-.415 1.07.611 1.213-.338.043-.252.853-1.256.808-1.54.197-.535.972.666-.24.371.327-.426 1.431-.273-.208-.688.263-.513-.295-.153.633-.503.022-.644.688.087.426-.59.557.088.514-.634.896.382.098-1.048.557-.022.896-.568-.219-.328.36-.786-.021-.24.382-.448-.35-.787.285-.219.884.405.153-.437.787 1.376.568.055.492-.404.12-.153.535-.656-.47-.24.612-.557-.164-.066 1.103-.382.197-1.464-.655-.153-.525.383-.404-.656-.688-.437-1.617.721-.142.284-.885-.207-.47-.568.175-.798-.393-.382.382-1.005-1.004-.59-.153.087-.525-.852-1.234-1.31.262v1.18l-.623.426-.721-.317-.437.197-.175-.852-.535-.612-1.136-.153-.033.251-.72-.338-.263-.219.044-1.344-.721-1.223.295-.12-.011-.47-.514-.218.022-.415.328-.11.12-.01.47-.24-.066-.907.393-.295.437.163.011-.25.35.513.688-.415-.186-.907.35.022-.175-.295.514-.732-.754-.754.164-.328.404-.185.71.622.065-.491.525-.24-.252-.438.153-.72 1.06-.23 1.038-1.54.328-.098.109.437.382.043.033-.546-1.005-.513-.044-1.104-1.147-.983-1.049-.175.132-.633-.437.186.13.48-.851.437-.295-.491.24-.536-.655-.043.579 1.158-.623.36.164.35.317-.12-.208.557-.459-.099.099.426.393-.306.175 1.257-.219-.142-.262.382.557-.24.11.47h-.755l-.72.611-1.038.273.35 1.748-.372.131.448.36-.7-.327-.677.11-.305-.82-.94.13-.087.94.426.82 1.332 1.278-.567.284-.033.426-.011.01-1.3.503-.197-.655-1.201-.044-.252-1.136-.458.513-.973-.021-.109.644-.284-.022-.59 1.19-.164-.272-.819.24-.284-.426-.666.087-.492-.546-.906.099-.765-.82-1.005.12-.918.841-.83-.043-.371-.459-.71-.797.426-1.464-.175-1.988.732-.24-.044-.46-.513-.567.043-1.77-.37-.087L0 14.288zm16.276-.065-.437-.24-.12-.722.459-.076.612.546-.437.098-.077.394zm1.682-.623.252.142-.678.339.24-.34.186-.141zm-3.419 3.408.481.437.6-.197-.185-.152.208.316-.94.23-.338-.306.338-.175-.459.12-.032-.317-.437.317.775-.328-.01.055zm6.784-.94.415-.054-.339.142-.076-.087z" fill="#FF0037" stroke-width="1" stroke="currentColor"/></svg>