<svg width="37" height="21" fill="none" xmlns="http://www.w3.org/2000/svg"><path d="m2.903 5.206 1.17.928 1.08-.6.306.01.394.776.568.01.95-.71.743.503.338-1.212L9.6 4.343l.132-.503.59-.098.873.448.874-.273-.054 1.31 2.741.58-.043.699.284.24.928-.175.24.262-.152.743.972.907.994.044 1.289.972.633-.58.547.34-.492.993 1.737-.622.623.48 1.092-.273.59.263.251-.47-1.19-1.202.698-.852-.207-1.3.48-.59.514.667.535-1.617 1.453-.513-.317-1.508.536-1.092L28.202.52l.776.196-.503 2.065.426.458 1.552-.229 1.07-.797.208.895.284-.021.579-1.278.426.196.284.666-.503.809 1.103.94.492 1.714.579 1.89-.776.645.612.032.328.46-.634.665 1.191-.054-.634.994.186.273.83.022-.022 1.07-.71.186-1.813 1.41-2.84.84-1.245 2.12-.503.677-1.726.065-1.758.58-.383-.23-.196-.885-1.268.273-1.66-.164-1.912 1.136.099.841.94 1.191-.23.382-1.202.328-.437-.524-1.704.262-2.01-.6-.677-.71-.153-1.3-1.486-.82-.873-.087-.164-.514-.426-.11-.94.47-1.54-.698-.612 1.005.492.96-.328.689-.655.11-.503-.318-.863.383-1.485-.153-1.082.644-.437-.83-.513.503.142.95-1.322-1.202.372-.84.972-.886-1.89-1.747.393-.634.426.787.601-.437.71.48.164-.262-.306-.502.513-.306 1.038.043-.317-.742-1.234.076-.437-.655-.775.371.196.35-.863.393-.775-1.19.786.305 1.639-1.016.13-.677 1.071-.186-.338-.666-.525-.186.284-.94.492.285V9.41l.655-.415-.579-.382L4.378 7.5l-.688.164-.164-.47-.24.284-.82-.754-.437-.83.437-.448.503.077-.066-.317z" fill="#FF0037" stroke-width="1" stroke="currentColor"/></svg>