<svg width="69" height="70" fill="none" xmlns="http://www.w3.org/2000/svg"><path d="m29.06 21.401 3.529-.787.36-.884-.338-2.349 1.07.503.655-1.956 1.038.011.503-.36.786.295.798-.918 1.147.535.928.033.066.94.72.502-.546.907.099.415.742-.033.536-.633h.382l.011.25 1.3.088-.23.514 1.727 1.278.633-.842.382-.032.383.633 1.453.547.95-.525 1.136.175 3.07-2.36-.427-.928.842-2.338 1.791.372.186.404.94.327 2.228-1.791.797.284.863-.415.066-.765.611-.087.634-.612-.099-1.19-.677-.252.557-.819-.491.066-.666-.47-1.038.23L57.1 8.39l-1.322-.098.197-.557.863-.284.186-.536-1.464-.863-.6-1.256 1.124-1.114 1.235-.339 1.038.339 1.157-.503.317-.666 1.65-.284-.033-.71.994-.797 1.223.371.317 1.628.59.404-.066.579 1.213.153.033.611-.623.23-.404.863 1.092.94.503.993-.131.798-1.759 1.114-.131.404.59.645-.612 1.452 1.322.427 1.333-.35 1.114.786.371.131-.48 1.06-1.027.306-2.218 2.785-.72 2.163-1.071 1.901-.033 1.726-1.278 1.005-.612 2.414-2.589 3.266-.655 1.54-2.545 2.174-1.748 2.677-2.655 1.966-.284 1.169-1.026.72-1.508 2.196.066.623-.732-.317-.11.513-.305.055.262.295-.743.502-.098.995-.623.972-2.12.917-.655 1.595-1.157.994-.12 1.519-.82.305-.185.689-.405-.055.055.776.524-.186-.71 1.41-1.234.851-.23-.284.317-.306-.71.295.262.164-.065.677-.404.273-.252 1.115-1.321.393-1.41 1.278-.109.448-.852.065.033.284-2.032 1.388-1.802.786-.47.841-.808.383-.776.972-.262-.262.295-.011-.48-.164-1.17 1.081-.535-.732-.513.525-.634-.088.088.219-.71.415h-1.016l-.754.743-1.234.338-.317-.47.71-.283-.808-.688.087-.328-.776.098.099.448-.503.568-.666-1.147.098-.721-.459.033-.185.6-.973.12-.01-.25h-.448l.054-.47-.622-.328-.962.983-.218-.764.218-1.442-.262-.23.36-.196-.13-.83.6-.285-.065-.36-.59-.011.371-.59-.153-.295-.404.011.142.23-.524.633-.929.382-1.452 1.377-.372-.252.328-1.245.688-.35.48-.84-.458-.12-.164.382-.907-.295-.415.273-.262-.743-.218 1.387-.58.328-.294 1.027-.798 1.06-.262-.077-.065.721-1.06.066.12.742.645-.054-1.65 1.125-.459 1.464.142.84-.753-.644-.11-.612-.578.416-.525-.088-.338.514-.907-.437.218-.71-.884-.022-.558.48 1.584 1.311-.12.667-.47.032-.273 1.202-.546.72-.885-2.654.448-.098.044-.83-.655-.754-.623.153-.426-.459 1.158-.939 1.027-.36.677.152.393-.447 1.54.163-.054-.644.753.022.219-.459-.295-.666.82-1.235-.088-.764.917-2.054-.054-.743-.918-.95.35-.448-.197-2.425.7-2.775-1.497-6.685-1.158-1.791 1.016-.394.13-.447 1.388.065.524-.634 1.147.153-.109-.284 1.639-1.332-.317-.46.251-.676.765.054.393-1.07.503-.306.316.622.983.492.984 3.08-.568 2.382 1.605 1.376 1.912.656 1.07-1.486 1.213-4.03.95.392 1.279-1.18-.394-1.212.557-2.545.863-.623.405.317 1.245-1.802.01-.328-.403-.11.578-.993-.262-.088.11-.775.502-.383.306.295.186-.797.48-.076.535-1.322-.37-.962.971-.873.284.262.47-.721.087-.645-.404-.207.58-.59-.722-.885.492-1.256.917-.885z" fill="#FF0037" stroke-width="1" stroke="currentColor"/></svg>