<svg width="39" height="23" fill="none" xmlns="http://www.w3.org/2000/svg"><path d="M1.879 2.742 3.2 3.943l-.142-.95.513-.502.437.83 1.081-.645 1.486.153.863-.382.502.317.656-.11.328-.688-.492-.961L9.045 0l1.54.7.94-.47.425.109.164.513.874.087 1.486.82.153 1.3.677.71 2.01.6 1.704-.262.437.525 1.202-.328.229-.382-.94-1.191-.098-.841L21.76.754l1.66.164 1.267-.273.197.884.382.23 1.759-.58 1.726-.065.502-.677.35.164 1.19-.393.896.6.525.645.218 1.3 1.912 2.36-.055 1.682.404.338 1.41-.207.098.513 1.442 1.038.273.743-.371 1.037.458.94-.404 3.07.557 1.43-.142.59-1.092.896-.197.72-.885-.294-.327-.863-1.125.6-.852-.12-.689 1.027-.895-.032-.547.764-.95.437.404 1.114-.262.405-2.665-1.453-1.158 1.343-2.524-.12-.513.219-.535.895-1.453-1.638-1.267-.055-.776-.535-.328.01-.35 1.323-1.845 1.442-1.07-.809-1.606-.23-1.18-.895-2 .557-.72.59-1.442-1.245-.524.033-.798.677.033-1.29 1.278-1.463-.044-.82-2.316-2.938-3.058-2.72.065-.906-1.234-1.704-.885-.044-.327-.317.174-1.256-1.463-.929L.284 3.3 0 3.048l1.879-.306z" fill="#FF0037" stroke-width="1" stroke="currentColor"/></svg>