<svg width="49" height="50" fill="none" xmlns="http://www.w3.org/2000/svg"><path d="m25.2 0 .613.328.207 1.005 1.202.611-.23 1.093 1.29.557.633-.131 2.261 1.988.142.95-1.07 3.092.382 1.278-.339.568.066 1.048 2.184-.01.634.753-.218.732 1.19.033.656.36 1.092 1.748-.961 1.857.164.907-.317.404-2.971.896-1.563 1.103.46 1.595-.864.404.394.863-.525.732.033.786 3.528.525 2.065 1.595.24 1.18 1.934 3.222.579-.11.262-.513.907.087-.088.962.721.524 3.266-.786.732 1.846.645.316.393.011.306-1.256 1.354-.546.273-1.18.645.12-.208.448.885.536-.098 3.124-.535 1.638-.066 1.53-.885.819-.48-.033-2.076 2.83.907.327-.339.907.579 1.387-.175.295-.84.437-.034-.82-.557-.458-1.103 2.698-1.726.033-3.408-2.731-2.108.579-1.268-.58-.852-.873-2.763-1.169-.186.186.36.906.918 1.344-.382.36-.95-.24-.754.404.098 1.038-.797.59-.776-.48-.655.24-.284.404.6 1.18-.142.447-1.999-.087-.513.743-1.715-.36-.743-1.432-.852-.568-.218-1.463-1.464.557-.82-.623h-2.949l-.72-.885.272-.59-.47-1.07-1.638-.732.535-1.89-.775-.59-3.67-.382-.59-.448-1.519.863-.087.732-.787.743-1.638-.131-.546.644v-.754l.699-1.594-1.66.032-.12-.458 1.375-.383.47-.677 1.639-.874 1.474.251.12-.447-.404-.274-.338-1.234.23-.83-.438-.273-1.813.185-.022.798-3.015.666-.033.317-.47-.382.427-1.049 1.136-.36.611.142-.032-.492-1.683.218-1.31.95-1.202.285.033-.612.688-.284-.066-.546L0 34.06l.612-.798-.066-1.747.612-.896 1.9-.317.416-.655.764.13.219-1.408.677-.82 1.868.437 1.966-.448.36.394.361-.208.525.383 1.824.043.666-1.955-.393-.514.71-.109.459-2.13.382.055.164-.328-.251-.754-.46.197-.6-.284.754-.557-.743-1.202-.01-1.158-1.268-.24-.24-.393 1.092-2.676 1.518.578.83-.983-.294-.36-.481.437-.644-.415-.59.01-.099.274-.633-1.235-.656-.12.044-.546 2.075-.186.689-1.332 1.376-.82-.306-2.316.448-.852-.076-.666.59-.743 2.403.525.972-.601 2.097-.59 1.158-2.687 2.141-1.977L25.201 0z" fill="#FF0037" stroke-width="1" stroke="currentColor"/></svg>