<svg width="39" height="30" fill="none" xmlns="http://www.w3.org/2000/svg"><path d="m7.135 2.8 1.89.131 1.42.71.305-.13-.153-.842.47-.459-.218-.797.393-.055.786.23-.153 1.638 1.847-.24 1.015-.907.929-.197L16.704.375l.764.754 2.535 1.037 1.005.984 1.846.185 2.49.962 1.311 2.425 1.693 1.802 3.452.95.612.667 3.987 1.846.907.644 1.048 1.54-.928 1.17.426 1.19-.36.82-.743 1.124-1.53.798.175.688-.262.339 1.365.306.088 1.092-.328.535-1.682.503-.219.437 1.245.59 1.016-.427.612.23.033 1.704-.426.36.044 1.016-.58.404-1.146-.032-.306-.896-.929.23-.174 2.064-.896.59-.36-.153-.875-1.082-1.07-.174-1.89.557-.36-.24.021-.765.776-1.027-.044-.579-.983 1.234-2.523-.96-.82.61-.655 1.388-1.66-.48-1.54.458-.798-1.496-.6.524-3.278.885-.426-.273-.12-1.104-.6-1.004-.569-.142.098.59-.393.207-1.3-.754.317-1.147 2.6-1.42-.82-1.267-.338.087-.076.656-.776-.055-.044.546-.863-.895-2.545-.492-.797-1.31-.852-.088-.404.35-2.229-1.574-.59-1.026.852-.317 1.005-1.245-.076-1.093-1.53-.83-.972-1.333.022-.972-2.687-.328-.306-2.031-.743-1.147-.775-.492.25-1.387 1.224-.252.82.383.535-1.005h.612l-.219-1.07-.743-.58.175-.808 1.715.36.514-.731 1.999.087z" fill="#FF0037" stroke-width="1" stroke="currentColor"/></svg>