<svg width="71" height="90" fill="none" xmlns="http://www.w3.org/2000/svg"><path d="m18.107.643.448-.448L21.91 1.67l.306.448-.022 1.671.644.732 2.786-.59 5.898 1.06 12.071 7.887 1.387 2.097.153.928-.633 2.087.83 2.884 2.742 4.915.284 1.235-.524 1.234 3.484 1.442.535 1.005.623 3.616-.01 4.282.578 1.212.896.962.95.404 2.447.065 3.113 1.038 1.825-.076.338 1.387.798-.066.24.317 2.043 6.51 1.485 1.672 1.639.59.295 1.365.48 4.413 1.3 3.08-2.49 1.41-.415.71-.83.273-.503.885-.961.71-1.005-.721-4.075 2.272.94 1.114-1.06 1.803 1.693 7.45.23.404 1.048-.164.175.317-.546 1.605-1.88.328-.95-.95-2.053-.033-1.092 1.136-.536-.11-.316.296.065 1.267-1.158 1.016.186 1.256-.841.295-2.556-.306-2.283-1.77-.852.383-.405.644-.273-.371-1.387.098-1.387-.72-1.562.917-.765.928-.71-1.18-.371-.021-.874.644-1.868 2.982-.929.623-.087 1.726-1.147-.492-.426-.994-.852-.305-.099-.547-1.354.066-.765-.841-.895.305-.94-.425-1.049.83.547 1.343-2.84.295-.656-.36-.918.273-1.3-.787-2.228.601-1.267-.448-1.9.46-.743-1.203-1.912-.196-.885-.503-.874.46.175 1.354-.568.437-.448-.12-.164 1.135-.83 1.038-.841-.153-2-1.31-1.922 1.07-.327-.382-1.104-.153-.94.6-.49-.087-1.159-.84-.72-.045-1.18.525-.492-.514L3 88l-.776-.928-.163-.743-.274-3.528.47-1.213-1.43-2.316.207-1.223.6-.503 1.814.732.765-.36 2.053-2.349.404.033.383.546.306-.207-.306-.612.284-.328-.721-1.016.36-1.398-1.06-.852-.087-.579.798-1.791-.219-.94.743-.972.01-.721.7-.754 1.103.448 1.366-.11.524 1.683 1.125-1.354 1.508-1.104.076-1.398-.295-.513-1.256-.295-.6-.874-.1-1.431 1.235-1.442.437-1.082 1.464-1.212 1.06.197.447-.306.372-1.17L17.823 55l.372-.71-.492-1.966.328-.874-.186-.273-1.19.207-.547-.415-.273-.874-.524-.174.01-1.333.831-1.235-.634-1.103.175-1.398-1.322-1.715-1.114-.12-.83-.503-1.092-1.835-.874-.753 1.103-3.78 1.147-1.813 2.294-2.054 1.234-4.217-.087-1.529 1.486-3.517.753-3.092.011-2.534-.994-1.944-.524-3.627-.011-1.267 1.486-3.79-.798-1.989-.207-2.61.753-1.519z" fill="#FF0037" stroke-width="1" stroke="currentColor"/></svg>