<svg width="66" height="38" fill="none" xmlns="http://www.w3.org/2000/svg"><path d="m45.748.35.12.404-.786 1.267.218.568 1.114-.863.743.186.448.546.535-.055.623.95 1.508 1.202 2.632-.23.808.46-.152.59.688.688.557.12.153-.656.393-.043.47.513.109 1.29 1.398.982 1.202.033.524.513 1.06.219-.208.328.874.96.557-.196 2.196.743 1.627 2.403-.207.612-.798-.055.022.798.437.338-.306 1.05-.699.075.404-.72-.731-.164-.438-.011-.415.524-.021 1.584h-.383l-.022.448-.863.076.131 1.158-3.386 1.333-1.55 1.486-1.825.076-.656-.262-.753 1.638.677 1.726-2.49.929-2.098 2.261-1.496-.776-.59.186.72.929.394 3.462.623 1.344-.197.852.764.295.197.765-1.114 1.169-2.37 1.08-.066.372-.885-.742-.633.01-1.05-2.72-.83-.699-1.365-2.228-2.075-1.606-.918.809-1.103.098-.568-1.147-1.103.262-1.147-1.027-.59-1.19-1.442-.634-.415.218-.208.994-.786.667-1.093-.339-1.453.7-.327-.383.109-1.344-1.944-1.409-.645-.065-.72.546.567 1.43-.273.416-2.392-.208-1.235.481-.513-1.606.852-.742.186-1.814-1.966-2.84-.929-.076-.743-.721-1.409-.033-.557.535-.688-.72-1.748.152-1.081 1.027-.907.251-.23-.273.263-.743-.263-.186-1.08.721-.7-.163-2.48 1.507-.895-.339-3.452-2.6-.11-1.714-.382-.689-.36-.458-1.508-.47-.557-.677-.273-.7.153-.71 1.333-1.998.01-.842.94-1.933-.033-.754L3.408 7.45l.262-1.213.798-.622.797-.678.525-.032L7.23 6.15l.721-.59 2-.557 1.18.896 1.605.23 1.07.808 1.846-1.442.35-1.322.328-.011.775.535 1.267.055 1.453 1.638.536-.895.513-.219 2.523.12 1.158-1.343 2.666 1.453.262-.405-.404-1.114.95-.437.546-.764.896.032.688-1.027.852.12 1.125-.6.328.863.885.295.491.371 1.224-.426.459.863.884-.36.394.404 1.442.207 1.332-.906 1.398.644.405-.317-.415-1.037.578-.885.743.579.634-.164.48-.983.721.153.907-.612.721.35z" fill="#FF0037" stroke-width="1" stroke="currentColor"/></svg>