<svg width="55" height="37" fill="none" xmlns="http://www.w3.org/2000/svg"><path d="m21.88.513.7.284.458-.447.6.327.645-.677 1.562 2.294-.13.623.731 1.442 1.29.382-.22-.929.569-.305.491.535.273.896-.295 1.278.841 1.256.82.579.579-.186.884.7.547-.023.262-.644 1.671-.48.393.218-1.201.95-.776 1.202-.065.393.72.535 1.17-.524 1.485.426.896-.284.535.087.896.983.404-.076.415-.612-.218-1.824 1.026-.524.929 1.114 1.081-.7.601.896.568-.458-.524-1.344.24-.262.907.437.197-.557-.623-.743-1.748-.656-.022-.262 1.322-1.212 1.114-.262.568-1.005-.273-.568 1.147-.874.35.513-.863 1.595.23 2.545 1.583 1.3.72.153.416-.535-.546-1.41.262-.404 1.792.678-.055 1.55-1.06.722-.022.94-1.136.775-.153.459.984.895 3.233-1.463 1.158.546.568 1.278.579.36-.175.252.983.513.044 1.114-1.497 1.366.077.895-.492.514-.415 1.322-1.737.95-1.158 1.496-.852-.021-1.879.753-.316.71.94.295 1.179.983.764 1.18 1.005-.044.328.492-.666 1.213.262 1.354-1.289 2.152-.317 1.245-.426 2.48.426 1.912-.273.895-.24.099-.961-1.126-1.497.678.131-.907-.83-.48.12-.536 1.3-.393.11-.328-.514-.71-.721.59-1.551-.841-1.486.033-.382-.47-.35-.885-.328-.098-.568.47-.688-.372-1.857 1.486-.142-.7-.808-.59.044-.851-.918-.186-1.922-1.125-.514-.841-.885 1.081-.338-.164.13-1.212-.742.644-1.016-.426.033.557-1.3 1.191.076 1.278-.47 1.245-1.518-1.376-1.726 1.573-.404-.164.175-.611-.568-.929-.372-.197-.622.612-.666-.972-1.158-.415-1.595.043-.83-.906-1.486.022.164-.547-1.322-2.534-1.256-1.07-.437.47-.164-.328-.295.196-.328.58-.852.098.973.47-1.038.065-1.256 1.857-.962.338-1.605.011-.71-.753-1.082-.273-.01-.809-.7.186-.623-.437-.513.83-.797-.13-.263 1.354-.491-.295-.088-1.147-.48-.36-.557.196.098.59-1.07 1.234.174.798-.317.163-.939-.47-.317.656-.338-1.256.284-.339L0 27.505l1.365-.567-.578-.885.524-.448-.098-.459 1.081.83 1.256.164-.13-.764 1.091.054-.393-1.409 2.458-.426.01-.415-1.026.426-.459-.612.153-.764 1.038-.58-.852-2.173-.6-.197.065.787-.47-.055-.568.7-.492-.176.12-1.125.153-.415.853-.251 1.3-1.923 1.18-.95-.864-.448-.043-.732 1.31-.491.58-.94 1.114-.23-.033-.796-.131-.896 1.66-1.278.47-1.497.972.295.623-1.223.786.021.623-.884.087-.437-1.212-.022-.197-.59.579-1.027 1.114-.688 2 .47.523-1.07.896.12.448-.995 1.147-.426.634.372-.372.568.328.502.972-.666.48.502.558-.983.896-.35.054-.327-.295-.492-.666-.087-.142-.634z" fill="#FF0037" stroke-width="1" stroke="currentColor"/></svg>