<svg width="81" height="71" fill="none" xmlns="http://www.w3.org/2000/svg"><path d="m8.619 21.246.502-.48 2.087.393 4.085-1.289-.054-3.408 1.649-1.366.71.208.339.688 3.67-1.988 1.038-1.671 2.512-.383 2.633-1.005 1.016-1.922.458-2.633 2.043.011 4.151-3.386L34.224.972l1.005-.83L36.67 0l1.092.513.044 1.06L41.226.35l1.387 1.092 2.13.907 2.338-.634.743.83 1.638-.775 1.431 1.584 2.83 1.966 1.103 1.223 1.605.197 2.808 3.408.142 1.606 1.54 1.453 1.365-.809 1.05.328.174.6-.666.918 1.562 1.453-1.049 1.213 1.027.48 1.922.558 2.677-.853.972.874 1.092-.284 1.42 1.53 3.977-.066 1.835.404 1.081-.24 1.049.7.502.633-.36.535-1.683 1.584-.24 1.07-1.409.46-1.223 1.43-1.05.284-2.304 1.988-7.854-.306-1.464 1.53.295.35-1.354.71-1.573-.558-3.55.088-.765-1.082-.601-.306-5.44.907-.426-.972-.066-1.835.394-2.273-1.42-.502-.066-.907-.983-.164-.797-.742-.645 2.48-1.9 4.642-.383 3.616-.033.797.71.633 1.136 2.655-2.392 2.152-.033.36.525.809.94.36.403.852 1.016-.054.219-1.497.35-.251 1.463.087.765 2.185 3.135 3.495.568 2.065-.088.612-.459.262.099.437-.503.36-.448-.109-.524.808-1.19-.24-.416.197-.786-.459.535 2.075-1.31 1.158-.612-.174-.547.48.186.372.776.13.568 1.224-1.792.95.721.623.317 1.475-.59 2.206-.557.547-1.508-.077-.305.437.25.47 1.956-.219.142.23-2.02 1.092.447 1.737.994.218.033.328-.492 1.224-.611.426-.557-.11-.601 1.093.295 1.322-.48-.011-.503 1.06-1.398.895-.525-.011-.776-.732-.862-.218-.623-1.191-1.518-.721-1.41.033-.906-.35-1.366.426-.874-1.037-1.07-.296-.23 1.016.481.044.186.841-1.879-.896-.852 1.366-.055-1.573-3.451-3.386-.405-1.584-2.217.557-.82-.929-1.31.437-1.639-.393-1.103-2.993-1.803-.033-.47-.786-.851.568-.765-.12-.612-1.05-1.562 1.29-1.737-1.835-2.01.906-2.49-2.763-.382-1.005-3.835-.47-.24-.448.295-.633-1.213-2.087.175-1.802-.393-1.377 1.879-.327.546-1.606-.175-.317-1.048.164-.23-.404L0 37.195l1.06-1.803-.94-1.114 4.075-2.272 1.005.721.96-.71.503-.885.83-.273.416-.71 2.49-1.409-1.3-3.08-.48-4.414z" fill="#FF0037" stroke-width="1" stroke="currentColor"/></svg>