<svg width="31" height="36" fill="none" xmlns="http://www.w3.org/2000/svg"><path d="m2.086 7.078.284-.316.328.295.317-2.262 1.289.35-.098.284.404.273.273-.6-.219-.263.634-.175-.503-.524-.032-.568.262.328.35-.492 3.277.382.906-.284.044-.557.623-.032.36.098-.044.306.994-.197.667.36.426-.36-.142-.448.458-.84-.37-1.344.403-.492.645.535.426-.448 2.927 1.246 1.038-.263.524 1.126.885-.219.328.929 1.999 1.584.087.458-.47.12.24.525 1.596.928.273-.382.82.48.447-.578.35.316.36-.283 1.398-.011.404.163v.503l1.06-.197.874.426.207 1.213.809 1.038-.568.742-.787.263-.732 1.212-.557.306.328.808-1.267.918.087 1.595-1.169.884.601 1.486-.688 1.366.655 1.19-.229.437-.557-.295-.197.448-.35-.338.088.699-.633.163.163.634-.47.273.132 2.174.535.655-.644.372-1.901-.186.797.48-.546.361.011.448-.393.066-.546-.536-.339.142-.59.634-.448.022-.743 1.005-.196-.197-1.136.677.043.437-.436-.01-.46.49.547.864-.929.382-.185.972-.415-.01.196 1.092-.644 1.038.076.775.262.033-.524.786.12.46-.557.196-1.07-.798-.405.514-1.125.01-.644-.72-.634-.099-1.256.842-.513-.164-.11-1.049-.852-.797-.863-1.005-.404-.612-.371.055-.295-.983.393-1.038-.666-.339 1.07-.35.306-.425-.48-1.027.37-.535-.469-.154-.24-.524.022-.83.59.11.578-.82-.316-1.18-.623.011-.23.48-.633.186-.568-.174-1.398-1.573-.186-2.087-1.005-.786-.47-1.213-.6-.688-1.53-.546.612-.83-.47-.011-.01-.492 1.114-.01-.47-.427-1.049.099.077-.536 1.485-.557.317-.972.896-.12-1.005-1.53-.972-.032-.306-.743L0 11l1.027-1.027-.503-.557.514-.743.448.142.316-.458.415.065.175-.437-.306-.907z" fill="#FF0037" stroke-width="1" stroke="currentColor"/></svg>