<svg width="24" height="24" fill="none" xmlns="http://www.w3.org/2000/svg"><path d="M11.3 19.3a.994.994 0 0 1-.288-.7.905.905 0 0 1 .263-.7l4.9-4.9H5a.968.968 0 0 1-.713-.288A.964.964 0 0 1 4 12c0-.283.096-.521.288-.713A.964.964 0 0 1 5 11h11.175l-4.9-4.9a.91.91 0 0 1-.263-.7.988.988 0 0 1 .288-.7.948.948 0 0 1 .7-.275c.283 0 .517.092.7.275l6.6 6.6a.68.68 0 0 1 .213.313 1.19 1.19 0 0 1 0 .762.865.865 0 0 1-.213.325l-6.6 6.6a.948.948 0 0 1-.7.275.948.948 0 0 1-.7-.275z" fill="currentColor"/></svg>