<svg width="24" height="24" fill="none" xmlns="http://www.w3.org/2000/svg"><path d="m10.6 13.8-2.175-2.175a.918.918 0 0 0-.675-.275c-.267 0-.5.1-.7.3a.948.948 0 0 0-.275.7c0 .283.092.517.275.7L9.9 15.9a.948.948 0 0 0 .7.275.948.948 0 0 0 .7-.275l5.675-5.675a.918.918 0 0 0 .275-.675c0-.267-.1-.5-.3-.7a.948.948 0 0 0-.7-.275.948.948 0 0 0-.7.275L10.6 13.8zM12 22a9.733 9.733 0 0 1-3.9-.788 10.114 10.114 0 0 1-3.175-2.137c-.9-.9-1.612-1.958-2.137-3.175A9.755 9.755 0 0 1 2 12c0-1.383.263-2.683.788-3.9a10.114 10.114 0 0 1 2.137-3.175c.9-.9 1.958-1.612 3.175-2.137A9.755 9.755 0 0 1 12 2c1.383 0 2.683.263 3.9.788a10.114 10.114 0 0 1 3.175 2.137c.9.9 1.613 1.958 2.138 3.175A9.72 9.72 0 0 1 22 12a9.733 9.733 0 0 1-.788 3.9 10.114 10.114 0 0 1-2.137 3.175c-.9.9-1.958 1.613-3.175 2.138A9.72 9.72 0 0 1 12 22z" fill="currentColor"/></svg>