<svg width="21" height="20" fill="none" xmlns="http://www.w3.org/2000/svg"><path d="M10.5 12.98a.93.93 0 0 1-.312-.052.722.722 0 0 1-.271-.178l-3-3a.79.79 0 0 1-.23-.583.79.79 0 0 1 .23-.583.838.838 0 0 1 .594-.24.77.77 0 0 1 .593.219l1.563 1.562V4.167c0-.236.08-.434.24-.594.16-.16.358-.24.593-.24.236 0 .434.08.594.24.16.16.24.358.24.594v5.958l1.562-1.562a.772.772 0 0 1 .594-.22.834.834 0 0 1 .594.24.79.79 0 0 1 .229.584.79.79 0 0 1-.23.583l-3 3a.736.736 0 0 1-.27.178.901.901 0 0 1-.313.051zm-5 3.687c-.458 0-.85-.164-1.177-.49A1.602 1.602 0 0 1 3.833 15v-1.666c0-.237.08-.435.24-.595.16-.16.358-.24.594-.239.236 0 .434.08.594.24.16.16.24.358.24.594V15h10v-1.666c0-.237.08-.435.24-.595.16-.16.357-.24.593-.239.236 0 .434.08.594.24.16.16.24.358.239.594V15c0 .459-.164.851-.49 1.178-.327.326-.72.49-1.177.489h-10z" fill="currentColor"/></svg>