<svg width="79" height="32" fill="none" xmlns="http://www.w3.org/2000/svg"><path d="M30.802 14.307c2.062-.464 5.387-2.233 5.387-6.145v-.464c0-3.575-2.441-7.11-11.572-7.11H0l7.111 7.11h13.888c2.481 0 3.199.928 3.199 2.146v.083c0 1.181-.718 2.19-3.2 2.19h-9.467l7.028 7.028h3.197c3.072 0 3.704 1.218 3.704 2.565v.127c0 .906-.33 1.951-1.777 2.43l7.012 7.011C36.205 29.96 38 26.645 38 22.844v-.502c-.002-5.51-4.42-7.362-7.198-8.035zM74.797 19.566v-.672H62.425c-.116.484-.586 2.666-3.738 4.025l7.478 7.478c7.194-2.867 8.632-7.994 8.632-10.83zM62.382 13.213h12.415v-.547C74.797 8.626 72.019 0 52.997 0h-1.64c-5.853 0-10.16.87-13.359 2.233l7.385 7.384c1.566-.74 3.717-1.2 6.69-1.2 9.087-.001 10.058 3.951 10.309 4.796zM78 1.641c.008.438-.148.82-.47 1.15-.323.333-.697.493-1.125.485-.427.008-.804-.152-1.13-.484-.326-.33-.485-.713-.476-1.151-.009-.44.15-.827.476-1.157.326-.33.703-.492 1.13-.482.428-.01.802.152 1.125.482.322.33.478.715.47 1.157zm-.701.922a1.28 1.28 0 0 0 .37-.93c0-.367-.123-.675-.37-.926a1.208 1.208 0 0 0-.894-.377c-.352 0-.652.128-.897.381a1.278 1.278 0 0 0-.367.924c0 .363.124.67.367.926.245.257.543.385.897.385.349 0 .647-.128.894-.383zm-.53-.738.465.643h-.43l-.417-.556h-.24v.556h-.384V.806h.668a.64.64 0 0 1 .438.152.515.515 0 0 1 .172.403.502.502 0 0 1-.271.464zm-.621-.68v.435h.277a.23.23 0 0 0 .163-.059.2.2 0 0 0 .062-.151.22.22 0 0 0-.063-.163.217.217 0 0 0-.162-.062h-.277z" fill="currentColor"/></svg>