<svg width="900" height="540" viewBox="0 0 900 540" fill="none" xmlns="http://www.w3.org/2000/svg">
<g clip-path="url(#clip0_378_11535)">
<rect width="900" height="540" fill="white"/>
<mask id="mask0_378_11535" style="mask-type:luminance" maskUnits="userSpaceOnUse" x="362" y="228" width="218" height="203">
<path d="M579.333 228.652H362.982V430.169H579.333V228.652Z" fill="white"/>
</mask>
<g mask="url(#mask0_378_11535)">
<mask id="mask1_378_11535" style="mask-type:luminance" maskUnits="userSpaceOnUse" x="362" y="228" width="218" height="203">
<path d="M579.333 228.664H362.982V430.17H579.333V228.664Z" fill="white"/>
</mask>
<g mask="url(#mask1_378_11535)">
<path d="M363.372 299.111L363.951 297.117L368.884 298.576L370.711 292.351L365.777 290.892L366.368 288.91L378.751 292.541L378.161 294.523L372.504 292.863L370.666 299.088L376.334 300.759L375.744 302.741L363.372 299.111Z" fill="black"/>
</g>
<mask id="mask2_378_11535" style="mask-type:luminance" maskUnits="userSpaceOnUse" x="362" y="228" width="218" height="203">
<path d="M579.333 228.664H362.982V430.17H579.333V228.664Z" fill="white"/>
</mask>
<g mask="url(#mask2_378_11535)">
<path d="M374.341 285.235L375.377 282.852C375.666 282.195 375.711 281.605 375.511 281.082C375.31 280.547 374.931 280.169 374.352 279.912C373.762 279.656 373.217 279.634 372.693 279.857C372.17 280.068 371.769 280.503 371.479 281.16L370.444 283.543L374.341 285.235ZM383.016 282.429L376.981 283.81L376.034 285.97L380.6 287.964L379.776 289.857L367.949 284.701L369.831 280.38C370.176 279.589 370.633 278.955 371.201 278.487C371.769 278.008 372.404 277.73 373.105 277.63C373.796 277.529 374.497 277.641 375.21 277.952C375.989 278.287 376.58 278.788 376.981 279.445C377.393 280.102 377.582 280.848 377.548 281.672L383.974 280.246L383.016 282.429Z" fill="black"/>
</g>
<mask id="mask3_378_11535" style="mask-type:luminance" maskUnits="userSpaceOnUse" x="331" y="77" width="281" height="288">
<path d="M434.783 77.6828L331.346 267.703L508.328 364.043L611.765 174.023L434.783 77.6828Z" fill="white"/>
</mask>
<g mask="url(#mask3_378_11535)">
<path d="M380.401 272.267L378.101 276.492L379.626 277.323L381.926 273.097L380.401 272.267Z" fill="black"/>
</g>
<mask id="mask4_378_11535" style="mask-type:luminance" maskUnits="userSpaceOnUse" x="362" y="228" width="218" height="203">
<path d="M579.333 228.664H362.982V430.17H579.333V228.664Z" fill="white"/>
</mask>
<g mask="url(#mask4_378_11535)">
<path d="M389.33 267.517C389.364 266.994 389.263 266.504 389.03 266.036C388.796 265.568 388.45 265.19 388.005 264.889C387.56 264.588 387.081 264.432 386.557 264.399C386.034 264.366 385.544 264.466 385.076 264.689C384.609 264.911 384.219 265.257 383.918 265.713C383.617 266.159 383.462 266.637 383.428 267.161C383.395 267.684 383.495 268.174 383.718 268.642C383.94 269.11 384.286 269.488 384.731 269.789C385.176 270.09 385.655 270.245 386.19 270.29C386.713 270.323 387.214 270.234 387.682 270C388.15 269.767 388.528 269.433 388.829 268.987C389.13 268.519 389.297 268.041 389.33 267.517ZM384.419 262.729C385.176 262.372 385.978 262.216 386.813 262.294C387.66 262.361 388.439 262.64 389.185 263.13C389.932 263.631 390.499 264.265 390.856 265.045C391.223 265.813 391.368 266.649 391.29 267.517C391.212 268.386 390.923 269.221 390.399 270C389.842 270.836 389.163 271.437 388.35 271.816C387.537 272.194 386.669 272.328 385.733 272.205C384.798 272.094 383.874 271.738 382.96 271.125L381.669 270.268C380.444 269.455 379.519 268.642 378.907 267.84C378.294 267.038 377.971 266.081 377.949 264.989C377.927 263.898 378.283 262.573 379.018 261.036C379.675 259.655 380.054 258.686 380.176 258.141L381.769 259.199C381.624 259.856 381.245 260.791 380.633 261.994C380.065 263.118 379.776 264.065 379.764 264.811C379.753 265.557 379.943 266.181 380.332 266.671C380.722 267.161 381.312 267.684 382.092 268.219C381.847 267.584 381.758 266.927 381.836 266.248C381.914 265.557 382.159 264.922 382.56 264.321C383.049 263.62 383.662 263.085 384.419 262.729Z" fill="black"/>
</g>
<mask id="mask5_378_11535" style="mask-type:luminance" maskUnits="userSpaceOnUse" x="362" y="228" width="218" height="203">
<path d="M579.333 228.664H362.982V430.17H579.333V228.664Z" fill="white"/>
</mask>
<g mask="url(#mask5_378_11535)">
<path d="M396.847 257.909C396.925 257.397 396.88 256.896 396.691 256.384C396.501 255.871 396.178 255.437 395.711 255.036C395.243 254.646 394.753 254.379 394.218 254.268C393.695 254.156 393.183 254.179 392.682 254.346C392.181 254.513 391.769 254.802 391.401 255.225C391.067 255.615 390.855 256.049 390.744 256.528C390.633 257.007 390.666 257.508 390.855 258.021C391.034 258.533 391.39 259.012 391.913 259.457C392.437 259.903 392.971 260.181 393.506 260.281C394.04 260.381 394.541 260.337 394.998 260.159C395.455 259.98 395.855 259.691 396.178 259.301C396.546 258.889 396.757 258.421 396.847 257.909ZM392.27 252.352C393.071 252.085 393.884 252.052 394.731 252.241C395.577 252.43 396.357 252.82 397.069 253.432C397.793 254.045 398.317 254.758 398.628 255.559C398.951 256.361 399.04 257.174 398.907 257.998C398.773 258.822 398.417 259.58 397.838 260.27C397.414 260.76 396.936 261.15 396.39 261.406C395.844 261.673 395.276 261.807 394.697 261.807L398.272 264.847L396.936 266.417L386.936 257.92L388.183 256.461L389.207 257.33C389.062 256.74 389.074 256.139 389.241 255.515C389.419 254.891 389.72 254.312 390.176 253.778C390.777 253.087 391.468 252.62 392.27 252.352Z" fill="black"/>
</g>
<mask id="mask6_378_11535" style="mask-type:luminance" maskUnits="userSpaceOnUse" x="362" y="228" width="218" height="203">
<path d="M579.333 228.664H362.982V430.17H579.333V228.664Z" fill="white"/>
</mask>
<g mask="url(#mask6_378_11535)">
<path d="M399.753 246.326C399.263 246.783 398.974 247.339 398.896 247.996C398.818 248.653 398.962 249.288 399.341 249.923L403.15 246.359C402.637 245.836 402.069 245.58 401.435 245.602C400.822 245.624 400.254 245.869 399.753 246.326ZM405.644 246.226L400.421 251.114C401.056 251.593 401.724 251.805 402.448 251.749C403.172 251.693 403.829 251.382 404.43 250.825C405.165 250.146 405.588 249.232 405.7 248.097L407.381 248.453C407.281 249.945 406.702 251.192 405.633 252.195C404.92 252.863 404.13 253.308 403.261 253.52C402.392 253.743 401.535 253.72 400.677 253.475C399.82 253.23 399.085 252.763 398.439 252.072C397.804 251.393 397.381 250.624 397.181 249.767C396.969 248.909 396.991 248.052 397.247 247.206C397.504 246.359 397.96 245.624 398.628 245.001C399.252 244.422 399.931 244.043 400.689 243.865C401.446 243.687 402.192 243.709 402.916 243.932C403.651 244.154 404.297 244.566 404.876 245.179C405.154 245.48 405.41 245.825 405.644 246.226Z" fill="black"/>
</g>
<mask id="mask7_378_11535" style="mask-type:luminance" maskUnits="userSpaceOnUse" x="362" y="228" width="218" height="203">
<path d="M579.333 228.664H362.982V430.17H579.333V228.664Z" fill="white"/>
</mask>
<g mask="url(#mask7_378_11535)">
<path d="M404.375 240.19L406.034 238.943L408.239 241.883L411.535 239.411L409.331 236.471L410.968 235.246L416.736 242.908L415.088 244.144L412.605 240.836L409.308 243.309L411.792 246.616L410.143 247.863L404.375 240.19Z" fill="black"/>
</g>
<mask id="mask8_378_11535" style="mask-type:luminance" maskUnits="userSpaceOnUse" x="362" y="228" width="218" height="203">
<path d="M579.333 228.664H362.982V430.17H579.333V228.664Z" fill="white"/>
</mask>
<g mask="url(#mask8_378_11535)">
<path d="M419.609 238.966L423.25 236.828L420.188 231.627L417.426 233.253L417.905 234.099C419.03 236.137 419.597 237.752 419.609 238.966ZM426.379 234.99L428.684 238.899L426.958 239.912L425.566 237.54L419.475 241.115L420.878 243.487L419.141 244.5L416.836 240.592L417.76 240.046C417.894 239.467 417.827 238.776 417.56 237.952C417.292 237.139 416.825 236.115 416.145 234.901L414.909 232.652L421.045 229.055L425.01 235.792L426.379 234.99Z" fill="black"/>
</g>
<mask id="mask9_378_11535" style="mask-type:luminance" maskUnits="userSpaceOnUse" x="362" y="228" width="218" height="203">
<path d="M579.333 228.664H362.982V430.17H579.333V228.664Z" fill="white"/>
</mask>
<g mask="url(#mask9_378_11535)">
<mask id="mask10_378_11535" style="mask-type:luminance" maskUnits="userSpaceOnUse" x="363" y="229" width="217" height="201">
<path d="M579.11 229.043H363.372V429.925H579.11V229.043Z" fill="white"/>
</mask>
<g mask="url(#mask10_378_11535)">
<path d="M579.11 369.592L578.23 371.474L573.575 369.28L570.802 375.148L575.457 377.342L574.566 379.202L562.896 373.712L563.775 371.841L569.12 374.358L571.893 368.489L566.537 365.972L567.428 364.102L579.11 369.592Z" fill="black"/>
</g>
</g>
<mask id="mask11_378_11535" style="mask-type:luminance" maskUnits="userSpaceOnUse" x="362" y="228" width="218" height="203">
<path d="M579.333 228.664H362.982V430.17H579.333V228.664Z" fill="white"/>
</mask>
<g mask="url(#mask11_378_11535)">
<path d="M566.125 381.615L564.733 383.809C564.343 384.41 564.209 384.989 564.321 385.535C564.432 386.081 564.755 386.526 565.278 386.86C565.813 387.205 566.358 387.306 566.904 387.172C567.45 387.038 567.918 386.671 568.307 386.07L569.699 383.876L566.125 381.615ZM557.127 383.052L563.307 382.617L564.566 380.624L560.356 377.951L561.459 376.203L572.361 383.107L569.833 387.083C569.376 387.807 568.82 388.364 568.185 388.753C567.55 389.143 566.882 389.321 566.18 389.31C565.479 389.299 564.799 389.087 564.154 388.675C563.441 388.219 562.929 387.64 562.628 386.927C562.327 386.214 562.249 385.446 562.405 384.633L555.835 385.056L557.127 383.052Z" fill="black"/>
</g>
<mask id="mask12_378_11535" style="mask-type:luminance" maskUnits="userSpaceOnUse" x="310" y="276" width="293" height="295">
<path d="M442.261 276.221L310.872 448.09L470.948 570.464L602.338 398.596L442.261 276.221Z" fill="white"/>
</mask>
<g mask="url(#mask12_378_11535)">
<path d="M559.644 388.624L556.723 392.445L558.103 393.5L561.024 389.679L559.644 388.624Z" fill="black"/>
</g>
<mask id="mask13_378_11535" style="mask-type:luminance" maskUnits="userSpaceOnUse" x="362" y="228" width="218" height="203">
<path d="M579.333 228.664H362.982V430.17H579.333V228.664Z" fill="white"/>
</mask>
<g mask="url(#mask13_378_11535)">
<path d="M548.586 396.831C548.475 397.343 548.497 397.844 548.664 398.345C548.82 398.846 549.098 399.269 549.488 399.637C549.878 399.993 550.334 400.238 550.847 400.35C551.348 400.461 551.86 400.439 552.35 400.283C552.84 400.127 553.274 399.848 553.653 399.448C554.02 399.047 554.254 398.601 554.366 398.1C554.477 397.599 554.455 397.087 554.299 396.597C554.143 396.107 553.864 395.672 553.475 395.305C553.085 394.938 552.628 394.704 552.116 394.592C551.604 394.47 551.103 394.492 550.602 394.648C550.1 394.804 549.677 395.082 549.321 395.472C548.942 395.873 548.708 396.318 548.586 396.831ZM552.706 402.321C551.905 402.555 551.092 402.577 550.279 402.376C549.455 402.176 548.72 401.786 548.074 401.185C547.406 400.572 546.96 399.86 546.715 399.036C546.47 398.211 546.448 397.376 546.671 396.519C546.882 395.661 547.305 394.893 547.929 394.203C548.608 393.468 549.377 392.966 550.234 392.721C551.092 392.476 551.971 392.476 552.873 392.733C553.787 392.989 554.633 393.49 555.446 394.225L556.582 395.272C557.673 396.263 558.452 397.209 558.942 398.1C559.432 398.98 559.599 399.971 559.444 401.062C559.299 402.142 558.742 403.401 557.773 404.815C556.916 406.085 556.381 406.964 556.192 407.499L554.778 406.207C555.023 405.572 555.535 404.715 556.326 403.624C557.06 402.599 557.495 401.708 557.617 400.973C557.74 400.238 557.651 399.592 557.35 399.036C557.038 398.49 556.537 397.889 555.847 397.232C555.991 397.9 555.98 398.557 555.791 399.225C555.613 399.882 555.268 400.494 554.778 401.029C554.199 401.652 553.508 402.076 552.706 402.321Z" fill="black"/>
</g>
<mask id="mask14_378_11535" style="mask-type:luminance" maskUnits="userSpaceOnUse" x="362" y="228" width="218" height="203">
<path d="M579.333 228.664H362.982V430.17H579.333V228.664Z" fill="white"/>
</mask>
<g mask="url(#mask14_378_11535)">
<path d="M539.689 405.135C539.522 405.625 539.499 406.137 539.611 406.66C539.722 407.184 539.978 407.685 540.368 408.142C540.769 408.598 541.214 408.932 541.727 409.133C542.228 409.333 542.74 409.378 543.252 409.289C543.764 409.199 544.232 408.977 544.644 408.62C545.034 408.286 545.312 407.897 545.491 407.44C545.68 406.983 545.713 406.482 545.613 405.948C545.513 405.413 545.234 404.879 544.789 404.366C544.332 403.843 543.854 403.487 543.341 403.309C542.829 403.13 542.317 403.086 541.849 403.208C541.37 403.32 540.936 403.542 540.546 403.865C540.145 404.233 539.856 404.656 539.689 405.135ZM543.364 411.349C542.528 411.482 541.715 411.393 540.914 411.081C540.112 410.77 539.399 410.257 538.787 409.545C538.163 408.821 537.762 408.041 537.573 407.195C537.384 406.349 537.417 405.536 537.673 404.734C537.929 403.932 538.397 403.242 539.087 402.663C539.577 402.239 540.123 401.939 540.691 401.761C541.27 401.582 541.838 401.538 542.417 401.627L539.366 398.075L540.925 396.738L549.488 406.683L548.03 407.93L547.15 406.905C547.206 407.507 547.105 408.108 546.838 408.698C546.571 409.289 546.17 409.812 545.635 410.269C544.945 410.848 544.188 411.204 543.364 411.349Z" fill="black"/>
</g>
<mask id="mask15_378_11535" style="mask-type:luminance" maskUnits="userSpaceOnUse" x="362" y="228" width="218" height="203">
<path d="M579.333 228.664H362.982V430.17H579.333V228.664Z" fill="white"/>
</mask>
<g mask="url(#mask15_378_11535)">
<path d="M535.001 416.148C535.558 415.769 535.925 415.268 536.104 414.633C536.282 413.999 536.237 413.353 535.959 412.662L531.638 415.591C532.05 416.193 532.585 416.527 533.208 416.605C533.854 416.671 534.444 416.527 535.001 416.148ZM529.177 415.324L535.101 411.304C534.556 410.725 533.921 410.424 533.197 410.368C532.484 410.313 531.772 410.524 531.092 410.981C530.268 411.549 529.7 412.384 529.411 413.486L527.818 412.874C528.141 411.404 528.91 410.268 530.123 409.444C530.936 408.898 531.783 408.575 532.674 408.509C533.565 408.431 534.411 408.576 535.213 408.954C536.014 409.333 536.671 409.912 537.206 410.68C537.729 411.449 538.019 412.273 538.086 413.152C538.164 414.032 537.997 414.867 537.618 415.669C537.239 416.46 536.671 417.117 535.914 417.629C535.213 418.108 534.478 418.375 533.709 418.431C532.941 418.487 532.206 418.353 531.515 418.019C530.825 417.685 530.246 417.172 529.778 416.482C529.544 416.148 529.344 415.758 529.177 415.324Z" fill="black"/>
</g>
<mask id="mask16_378_11535" style="mask-type:luminance" maskUnits="userSpaceOnUse" x="362" y="228" width="218" height="203">
<path d="M579.333 228.664H362.982V430.17H579.333V228.664Z" fill="white"/>
</mask>
<g mask="url(#mask16_378_11535)">
<path d="M529.487 421.483L527.65 422.463L525.935 419.211L522.294 421.149L524.008 424.389L522.193 425.347L517.694 416.884L519.51 415.915L521.447 419.579L525.1 417.641L523.151 413.988L524.977 413.02L529.487 421.483Z" fill="black"/>
</g>
<mask id="mask17_378_11535" style="mask-type:luminance" maskUnits="userSpaceOnUse" x="362" y="228" width="218" height="203">
<path d="M579.333 228.664H362.982V430.17H579.333V228.664Z" fill="white"/>
</mask>
<g mask="url(#mask17_378_11535)">
<path d="M514.242 420.338L510.311 421.886L512.538 427.498L515.523 426.318L515.189 425.405C514.376 423.222 514.064 421.541 514.242 420.338ZM506.937 423.222L505.267 419.002L507.115 418.267L508.129 420.828L514.688 418.233L513.674 415.672L515.545 414.926L517.216 419.146L516.224 419.547C516.002 420.093 515.968 420.794 516.113 421.641C516.258 422.487 516.57 423.567 517.037 424.881L517.906 427.287L511.291 429.904L508.407 422.632L506.937 423.222Z" fill="black"/>
</g>
</g>

<path d="M435.894 36V22.7704H444.233V24.6747H438.019V28.0623H440.865C442.188 28.0623 443.257 28.4297 444.072 29.1647C444.901 29.8997 445.315 30.8485 445.315 32.0111C445.315 33.187 444.901 34.1492 444.072 34.8975C443.257 35.6325 442.188 36 440.865 36H435.894ZM438.019 34.1358H440.785C441.533 34.1358 442.115 33.9487 442.529 33.5746C442.957 33.187 443.17 32.6659 443.17 32.0111C443.17 31.3563 442.957 30.8418 442.529 30.4676C442.115 30.0801 441.533 29.8863 440.785 29.8863H438.019V34.1358ZM458.06 22.5499H458.802V36H456.677V26.7593L448.479 36.2205H447.737V22.7704H449.862V31.991L458.06 22.5499ZM471.345 32.1314C471.345 33.334 470.884 34.3162 469.962 35.0779C469.053 35.8396 467.884 36.2205 466.454 36.2205C465.332 36.2205 464.323 35.9599 463.428 35.4387C462.532 34.9042 461.837 34.1759 461.343 33.2539L462.846 32.1514C463.782 33.5679 464.978 34.2761 466.434 34.2761C467.236 34.2761 467.898 34.069 468.419 33.6548C468.94 33.2405 469.2 32.6993 469.2 32.0311C469.2 31.4164 468.973 30.9287 468.519 30.5679C468.078 30.2071 467.43 30.0267 466.575 30.0267H464.951V28.2026H466.514C467.156 28.2026 467.657 28.0422 468.018 27.7215C468.379 27.3874 468.559 26.9464 468.559 26.3985C468.559 25.8106 468.372 25.3495 467.998 25.0155C467.624 24.668 467.096 24.4943 466.414 24.4943C465.171 24.4943 464.176 25.089 463.428 26.2783L461.924 25.1758C462.873 23.4252 464.39 22.5499 466.474 22.5499C467.757 22.5499 468.78 22.884 469.541 23.5522C470.316 24.2203 470.704 25.1157 470.704 26.2382C470.704 27.3473 470.223 28.2427 469.261 28.9242C470.65 29.5923 471.345 30.6614 471.345 32.1314ZM473.87 36V22.7704H475.994V28.0422H482.649V22.7704H484.774V36H482.649V29.9465H475.994V36H473.87ZM488.12 36V22.7704H496.82V24.6747H490.245V28.0623H495.196V29.9064H490.245V34.0957H497.06V36H488.12ZM498.339 29.3852C498.299 27.501 498.974 25.8841 500.364 24.5344C501.753 23.1847 503.397 22.5232 505.295 22.5499C506.497 22.5499 507.6 22.8239 508.602 23.3718C509.604 23.9197 510.393 24.6613 510.967 25.5968L509.364 26.7794C508.388 25.256 507.039 24.4943 505.315 24.4943C503.952 24.4943 502.816 24.962 501.907 25.8974C500.998 26.8195 500.544 27.9821 500.544 29.3852C500.544 30.7884 500.998 31.9576 501.907 32.8931C502.816 33.8151 503.952 34.2761 505.315 34.2761C507.039 34.2761 508.388 33.5144 509.364 31.991L510.967 33.1737C510.393 34.1225 509.604 34.8708 508.602 35.4187C507.613 35.9532 506.511 36.2205 505.295 36.2205C503.397 36.2472 501.753 35.5857 500.364 34.2361C498.974 32.8864 498.299 31.2694 498.339 29.3852Z" fill="black"/>
<path d="M473.363 408.253C519.269 408.253 556.482 371.069 556.482 325.201C556.482 279.332 519.269 242.148 473.363 242.148C427.458 242.148 390.244 279.332 390.244 325.201C390.244 371.069 427.458 408.253 473.363 408.253Z" fill="#EE0000"/>
<path d="M473.363 416.139C523.549 416.139 564.233 375.425 564.233 325.202C564.233 274.979 523.549 234.266 473.363 234.266C423.177 234.266 382.493 274.979 382.493 325.202C382.493 375.425 423.177 416.139 473.363 416.139Z" stroke="black" stroke-width="1.1136" stroke-miterlimit="10"/>
<path d="M473.362 513.552C577.425 513.552 661.784 429.223 661.784 325.198C661.784 221.173 577.425 136.844 473.362 136.844C369.3 136.844 284.941 221.173 284.941 325.198C284.941 429.223 369.3 513.552 473.362 513.552Z" stroke="black" stroke-width="1.1136" stroke-miterlimit="10"/>
<path d="M473.363 209.274C509.452 209.274 538.709 180.018 538.709 143.928C538.709 107.838 509.452 78.582 473.363 78.582C437.273 78.582 408.017 107.838 408.017 143.928C408.017 180.018 437.273 209.274 473.363 209.274Z" fill="#EE0000"/>
<path d="M424.783 146.699V134.969H426.667V139.643H432.567V134.969H434.451V146.699H432.567V141.332H426.667V146.699H424.783ZM446.945 146.699H444.794L441.453 142.167H439.302V146.699H437.418V134.969H441.702C442.886 134.969 443.846 135.307 444.581 135.982C445.315 136.646 445.683 137.505 445.683 138.559C445.683 139.329 445.481 140.005 445.078 140.585C444.687 141.166 444.137 141.592 443.426 141.865L446.945 146.699ZM439.302 136.64V140.496H441.666C442.306 140.496 442.809 140.325 443.177 139.981C443.556 139.626 443.746 139.158 443.746 138.577C443.746 137.996 443.556 137.528 443.177 137.173C442.809 136.817 442.306 136.64 441.666 136.64H439.302Z" fill="white"/>
<path d="M448.099 141.847V140.265H452.472V141.847H448.099Z" fill="white"/>
<path d="M454.175 142.327C454.151 141.083 454.601 140.011 455.526 139.11C456.45 138.198 457.54 137.753 458.796 137.777C460.431 137.777 461.657 138.453 462.475 139.803L461.16 140.834C460.543 139.945 459.761 139.501 458.814 139.501C458.032 139.501 457.38 139.774 456.859 140.319C456.337 140.864 456.077 141.533 456.077 142.327C456.077 143.133 456.337 143.808 456.859 144.353C457.38 144.898 458.032 145.171 458.814 145.171C459.738 145.171 460.52 144.732 461.16 143.856L462.475 144.869C462.084 145.508 461.568 146.006 460.929 146.362C460.289 146.717 459.578 146.895 458.796 146.895C457.504 146.895 456.408 146.45 455.508 145.562C454.619 144.673 454.175 143.595 454.175 142.327ZM471.535 137.777H472.175V146.699H470.291V141.278L465.208 146.895H464.55V137.973H466.434V143.429L471.535 137.777ZM474.343 142.327C474.319 141.083 474.77 140.011 475.694 139.11C476.618 138.198 477.708 137.753 478.964 137.777C480.599 137.777 481.825 138.453 482.643 139.803L481.328 140.834C480.712 139.945 479.93 139.501 478.982 139.501C478.2 139.501 477.548 139.774 477.027 140.319C476.505 140.864 476.245 141.533 476.245 142.327C476.245 143.133 476.505 143.808 477.027 144.353C477.548 144.898 478.2 145.171 478.982 145.171C479.906 145.171 480.688 144.732 481.328 143.856L482.643 144.869C482.252 145.508 481.737 146.006 481.097 146.362C480.457 146.717 479.746 146.895 478.964 146.895C477.673 146.895 476.577 146.45 475.676 145.562C474.787 144.673 474.343 143.595 474.343 142.327ZM486.46 146.699V139.59H483.652V137.973H491.134V139.59H488.326V146.699H486.46ZM500.627 142.949H494.122C494.24 143.66 494.554 144.223 495.064 144.638C495.585 145.04 496.219 145.242 496.966 145.242C497.89 145.242 498.737 144.898 499.507 144.211L500.396 145.491C499.412 146.427 498.251 146.895 496.912 146.895C495.585 146.895 494.471 146.462 493.571 145.597C492.67 144.72 492.22 143.636 492.22 142.345C492.197 141.089 492.635 140.011 493.535 139.11C494.436 138.198 495.502 137.753 496.735 137.777C497.884 137.777 498.844 138.162 499.614 138.932C500.384 139.691 500.769 140.639 500.769 141.776C500.769 142.12 500.722 142.511 500.627 142.949ZM494.157 141.492H498.903C498.891 140.84 498.672 140.325 498.245 139.945C497.819 139.554 497.291 139.359 496.663 139.359C496.047 139.359 495.508 139.554 495.046 139.945C494.596 140.325 494.3 140.84 494.157 141.492ZM502.925 146.699V137.777H503.583L507.688 142.523L511.812 137.777H512.434V146.699H510.568V141.652L508.008 144.62H507.351L504.809 141.669V146.699H502.925ZM522.093 141.421V146.699H520.351V145.722C519.699 146.504 518.769 146.895 517.56 146.895C516.648 146.895 515.913 146.664 515.357 146.202C514.8 145.739 514.521 145.129 514.521 144.371C514.521 143.613 514.812 143.008 515.392 142.558C515.973 142.108 516.755 141.883 517.738 141.883H520.209V141.314C520.209 140.71 520.043 140.248 519.711 139.928C519.391 139.608 518.935 139.448 518.342 139.448C517.454 139.448 516.648 139.88 515.925 140.745L514.841 139.643C515.694 138.399 516.921 137.777 518.52 137.777C519.61 137.777 520.475 138.097 521.115 138.737C521.767 139.377 522.093 140.271 522.093 141.421ZM520.209 143.393V143.233H517.969C516.938 143.233 516.423 143.589 516.423 144.3C516.423 144.655 516.559 144.94 516.832 145.153C517.116 145.354 517.489 145.455 517.951 145.455C518.591 145.455 519.124 145.26 519.551 144.869C519.989 144.478 520.209 143.986 520.209 143.393Z" fill="white"/>
<mask id="mask18_378_11535" style="mask-type:luminance" maskUnits="userSpaceOnUse" x="321" y="54" width="304" height="47">
<path d="M624.767 54.6641H321.957V100.633H624.767V54.6641Z" fill="white"/>
</mask>
<g mask="url(#mask18_378_11535)">
<mask id="mask19_378_11535" style="mask-type:luminance" maskUnits="userSpaceOnUse" x="322" y="55" width="303" height="46">
<path d="M624.499 55.0664H322.357V100.457H624.499V55.0664Z" fill="white"/>
</mask>
<g mask="url(#mask19_378_11535)">
<path d="M622.729 99.4451C579.8 71.7388 528.518 55.625 473.417 55.625C418.328 55.625 367.046 71.7388 324.117 99.4451" stroke="black" stroke-width="1.12373" stroke-miterlimit="10"/>
</g>
</g>
<mask id="mask20_378_11535" style="mask-type:luminance" maskUnits="userSpaceOnUse" x="321" y="54" width="304" height="47">
<path d="M624.767 54.6641H321.957V100.633H624.767V54.6641Z" fill="white"/>
</mask>
<g mask="url(#mask20_378_11535)">
<mask id="mask21_378_11535" style="mask-type:luminance" maskUnits="userSpaceOnUse" x="322" y="55" width="303" height="46">
<path d="M624.499 55.0664H322.357V100.457H624.499V55.0664Z" fill="white"/>
</mask>
<g mask="url(#mask21_378_11535)">
<path d="M619.11 90.8449C618.832 90.9785 618.709 91.3126 618.843 91.591L622.506 99.3305L613.865 99.3416C613.553 99.3416 613.297 99.5978 613.297 99.8984C613.297 100.199 613.553 100.455 613.865 100.455L623.397 100.444C623.587 100.444 623.776 100.344 623.865 100.188C623.965 100.032 623.987 99.8205 623.898 99.6534L619.856 91.1121C619.8 91.0119 619.733 90.934 619.644 90.8783C619.489 90.7781 619.288 90.7558 619.11 90.8449Z" fill="black"/>
</g>
</g>
<mask id="mask22_378_11535" style="mask-type:luminance" maskUnits="userSpaceOnUse" x="321" y="54" width="304" height="47">
<path d="M624.767 54.6641H321.957V100.633H624.767V54.6641Z" fill="white"/>
</mask>
<g mask="url(#mask22_378_11535)">
<mask id="mask23_378_11535" style="mask-type:luminance" maskUnits="userSpaceOnUse" x="322" y="55" width="303" height="46">
<path d="M624.499 55.0664H322.357V100.457H624.499V55.0664Z" fill="white"/>
</mask>
<g mask="url(#mask23_378_11535)">
<path d="M327.747 90.8458C328.025 90.9794 328.148 91.3135 328.014 91.5919L324.351 99.3314L332.992 99.3425C333.304 99.3425 333.56 99.5987 333.56 99.8993C333.56 100.2 333.304 100.456 332.992 100.456L323.46 100.434C323.27 100.434 323.092 100.334 322.981 100.178C322.881 100.022 322.858 99.8103 322.947 99.6432L326.99 91.1019C327.045 91.0017 327.112 90.9237 327.201 90.868C327.368 90.779 327.569 90.7567 327.747 90.8458Z" fill="black"/>
</g>
</g>
<path d="M602.919 480.749C612.734 480.749 620.692 472.792 620.692 462.976C620.692 453.16 612.734 445.203 602.919 445.203C593.103 445.203 585.146 453.16 585.146 462.976C585.146 472.792 593.103 480.749 602.919 480.749Z" stroke="white" stroke-width="4.4544" stroke-miterlimit="10"/>
<mask id="mask24_378_11535" style="mask-type:luminance" maskUnits="userSpaceOnUse" x="556" y="413" width="38" height="39">
<path d="M565.411 413.188L593.207 443.411L583.975 451.907L556.18 421.673L565.411 413.188Z" fill="white"/>
</mask>
<g mask="url(#mask24_378_11535)">
<mask id="mask25_378_11535" style="mask-type:luminance" maskUnits="userSpaceOnUse" x="556" y="413" width="38" height="39">
<path d="M565.375 413.174L556.137 421.668L583.933 451.899L593.171 443.405L565.375 413.174Z" fill="white"/>
</mask>
<g mask="url(#mask25_378_11535)">
<path d="M587.283 445.994L562.951 419.523" stroke="#010202" stroke-width="1.24901" stroke-miterlimit="10"/>
</g>
<mask id="mask26_378_11535" style="mask-type:luminance" maskUnits="userSpaceOnUse" x="556" y="413" width="38" height="39">
<path d="M565.375 413.174L556.137 421.668L583.933 451.899L593.171 443.405L565.375 413.174Z" fill="white"/>
</mask>
<g mask="url(#mask26_378_11535)">
<path d="M568.53 419.346L568.474 420.415L563.24 419.836L563.374 425.115L562.305 425.07L562.138 418.645L568.53 419.346Z" fill="#010202"/>
</g>
</g>
<path d="M647.887 412.062C657.739 412.062 665.727 404.104 665.727 394.289C665.727 384.473 657.739 376.516 647.887 376.516C638.034 376.516 630.047 384.473 630.047 394.289C630.047 404.104 638.034 412.062 647.887 412.062Z" stroke="white" stroke-width="4.4544" stroke-miterlimit="10"/>
<mask id="mask27_378_11535" style="mask-type:luminance" maskUnits="userSpaceOnUse" x="588" y="366" width="43" height="29">
<path d="M592.976 366.371L630.716 382.574L625.76 394.111L588.031 377.908L592.976 366.371Z" fill="white"/>
</mask>
<g mask="url(#mask27_378_11535)">
<mask id="mask28_378_11535" style="mask-type:luminance" maskUnits="userSpaceOnUse" x="588" y="366" width="43" height="29">
<path d="M593.014 366.358L588.062 377.891L625.8 394.097L630.753 382.564L593.014 366.358Z" fill="white"/>
</mask>
<g mask="url(#mask28_378_11535)">
<path d="M626.372 387.351L593.331 373.164" stroke="#010202" stroke-width="1.24901" stroke-miterlimit="10"/>
</g>
<mask id="mask29_378_11535" style="mask-type:luminance" maskUnits="userSpaceOnUse" x="588" y="366" width="43" height="29">
<path d="M593.014 366.358L588.062 377.891L625.8 394.097L630.753 382.564L593.014 366.358Z" fill="white"/>
</mask>
<g mask="url(#mask29_378_11535)">
<path d="M598.352 370.723L598.742 371.714L593.72 373.328L596.003 378.095L595.012 378.496L592.228 372.694L598.352 370.723Z" fill="#010202"/>
</g>
</g>
<path d="M663.503 343.302C673.308 342.332 680.469 333.597 679.498 323.793C678.528 313.988 669.793 306.827 659.989 307.797C650.184 308.768 643.023 317.503 643.994 327.307C644.964 337.112 653.699 344.273 663.503 343.302Z" stroke="white" stroke-width="4.4544" stroke-miterlimit="10"/>
<mask id="mask30_378_11535" style="mask-type:luminance" maskUnits="userSpaceOnUse" x="599" y="320" width="42" height="14">
<path d="M640.135 320.992H599.11V333.554H640.135V320.992Z" fill="white"/>
</mask>
<g mask="url(#mask30_378_11535)">
<mask id="mask31_378_11535" style="mask-type:luminance" maskUnits="userSpaceOnUse" x="599" y="320" width="42" height="14">
<path d="M640.135 320.992H599.11V333.554H640.135V320.992Z" fill="white"/>
</mask>
<g mask="url(#mask31_378_11535)">
<path d="M638.031 327.105H602.117" stroke="#010202" stroke-width="1.24912" stroke-miterlimit="10"/>
</g>
<mask id="mask32_378_11535" style="mask-type:luminance" maskUnits="userSpaceOnUse" x="599" y="320" width="42" height="14">
<path d="M640.135 320.992H599.11V333.554H640.135V320.992Z" fill="white"/>
</mask>
<g mask="url(#mask32_378_11535)">
<path d="M605.758 322.875L606.504 323.632L602.529 327.107L606.504 330.581L605.758 331.338L600.914 327.107L605.758 322.875Z" fill="#010202"/>
</g>
</g>
<path d="M662.387 259.699C666.143 250.63 661.837 240.233 652.768 236.476C643.699 232.72 633.302 237.026 629.546 246.095C625.789 255.164 630.096 265.561 639.165 269.317C648.233 273.074 658.63 268.767 662.387 259.699Z" stroke="white" stroke-width="4.4544" stroke-miterlimit="10"/>
<mask id="mask33_378_11535" style="mask-type:luminance" maskUnits="userSpaceOnUse" x="586" y="256" width="44" height="28">
<path d="M624.69 256.336L629.501 267.929L591.583 283.686L586.761 272.105L624.69 256.336Z" fill="white"/>
</mask>
<g mask="url(#mask33_378_11535)">
<mask id="mask34_378_11535" style="mask-type:luminance" maskUnits="userSpaceOnUse" x="586" y="256" width="44" height="28">
<path d="M624.683 256.308L586.759 272.07L591.576 283.659L629.5 267.897L624.683 256.308Z" fill="white"/>
</mask>
<g mask="url(#mask34_378_11535)">
<path d="M625.091 262.785L591.884 276.583" stroke="#010202" stroke-width="1.24912" stroke-miterlimit="10"/>
</g>
<mask id="mask35_378_11535" style="mask-type:luminance" maskUnits="userSpaceOnUse" x="586" y="256" width="44" height="28">
<path d="M624.683 256.308L586.759 272.07L591.576 283.659L629.5 267.897L624.683 256.308Z" fill="white"/>
</mask>
<g mask="url(#mask35_378_11535)">
<path d="M593.631 271.281L594.622 271.693L592.273 276.426L597.284 278.096L596.883 279.088L590.78 277.039L593.631 271.281Z" fill="#010202"/>
</g>
</g>
<path d="M595.302 200.788C605.118 200.788 613.075 192.831 613.075 183.015C613.075 173.199 605.118 165.242 595.302 165.242C585.487 165.242 577.529 173.199 577.529 183.015C577.529 192.831 585.487 200.788 595.302 200.788Z" stroke="white" stroke-width="4.4544" stroke-miterlimit="10"/>
<mask id="mask36_378_11535" style="mask-type:luminance" maskUnits="userSpaceOnUse" x="550" y="197" width="38" height="40">
<path d="M577.845 197.086L550.723 227.926L560.147 236.214L587.269 205.375L577.845 197.086Z" fill="white"/>
</mask>
<g mask="url(#mask36_378_11535)">
<mask id="mask37_378_11535" style="mask-type:luminance" maskUnits="userSpaceOnUse" x="550" y="197" width="38" height="40">
<path d="M577.823 197.012L550.705 227.855L560.13 236.142L587.249 205.299L577.823 197.012Z" fill="white"/>
</mask>
<g mask="url(#mask37_378_11535)">
<path d="M581.038 202.672L557.296 229.677" stroke="#010202" stroke-width="1.24912" stroke-miterlimit="10"/>
</g>
<mask id="mask38_378_11535" style="mask-type:luminance" maskUnits="userSpaceOnUse" x="550" y="197" width="38" height="40">
<path d="M577.823 197.012L550.705 227.855L560.13 236.142L587.249 205.299L577.823 197.012Z" fill="white"/>
</mask>
<g mask="url(#mask38_378_11535)">
<path d="M556.528 224.142L557.597 224.086L557.575 229.353L562.809 228.663L562.876 229.721L556.506 230.578L556.528 224.142Z" fill="#010202"/>
</g>
</g>
<path d="M342.203 480.749C352.019 480.749 359.976 472.792 359.976 462.976C359.976 453.16 352.019 445.203 342.203 445.203C332.387 445.203 324.43 453.16 324.43 462.976C324.43 472.792 332.387 480.749 342.203 480.749Z" stroke="white" stroke-width="4.4544" stroke-miterlimit="10"/>
<mask id="mask39_378_11535" style="mask-type:luminance" maskUnits="userSpaceOnUse" x="351" y="413" width="38" height="39">
<path d="M379.586 413.188L388.829 421.673L361.034 451.907L351.791 443.411L379.586 413.188Z" fill="white"/>
</mask>
<g mask="url(#mask39_378_11535)">
<mask id="mask40_378_11535" style="mask-type:luminance" maskUnits="userSpaceOnUse" x="351" y="413" width="38" height="39">
<path d="M379.562 413.183L351.766 443.414L361.004 451.908L388.8 421.677L379.562 413.183Z" fill="white"/>
</mask>
<g mask="url(#mask40_378_11535)">
<path d="M357.716 445.994L382.048 419.523" stroke="#010202" stroke-width="1.24901" stroke-miterlimit="10"/>
</g>
<mask id="mask41_378_11535" style="mask-type:luminance" maskUnits="userSpaceOnUse" x="351" y="413" width="38" height="39">
<path d="M379.562 413.183L351.766 443.414L361.004 451.908L388.8 421.677L379.562 413.183Z" fill="white"/>
</mask>
<g mask="url(#mask41_378_11535)">
<path d="M376.469 419.342L376.524 420.411L381.758 419.832L381.625 425.111L382.694 425.066L382.861 418.641L376.469 419.342Z" fill="#010202"/>
</g>
</g>
<path d="M297.236 412.062C307.089 412.062 315.076 404.104 315.076 394.289C315.076 384.473 307.089 376.516 297.236 376.516C287.384 376.516 279.396 384.473 279.396 394.289C279.396 404.104 287.384 412.062 297.236 412.062Z" stroke="white" stroke-width="4.4544" stroke-miterlimit="10"/>
<mask id="mask42_378_11535" style="mask-type:luminance" maskUnits="userSpaceOnUse" x="314" y="366" width="43" height="29">
<path d="M352.026 366.371L356.981 377.908L319.241 394.111L314.297 382.574L352.026 366.371Z" fill="white"/>
</mask>
<g mask="url(#mask42_378_11535)">
<mask id="mask43_378_11535" style="mask-type:luminance" maskUnits="userSpaceOnUse" x="314" y="366" width="44" height="29">
<path d="M352.064 366.368L314.325 382.574L319.278 394.107L357.016 377.901L352.064 366.368Z" fill="white"/>
</mask>
<g mask="url(#mask43_378_11535)">
<path d="M318.638 387.351L351.678 373.164" stroke="#010202" stroke-width="1.24901" stroke-miterlimit="10"/>
</g>
<mask id="mask44_378_11535" style="mask-type:luminance" maskUnits="userSpaceOnUse" x="314" y="366" width="44" height="29">
<path d="M352.064 366.368L314.325 382.574L319.278 394.107L357.016 377.901L352.064 366.368Z" fill="white"/>
</mask>
<g mask="url(#mask44_378_11535)">
<path d="M346.656 370.723L346.267 371.714L351.289 373.328L349.006 378.095L349.997 378.496L352.781 372.694L346.656 370.723Z" fill="#010202"/>
</g>
</g>
<path d="M283.338 343.375C293.191 343.375 301.178 335.388 301.178 325.535C301.178 315.683 293.191 307.695 283.338 307.695C273.485 307.695 265.498 315.683 265.498 325.535C265.498 335.388 273.485 343.375 283.338 343.375Z" stroke="white" stroke-width="4.4544" stroke-miterlimit="10"/>
<mask id="mask45_378_11535" style="mask-type:luminance" maskUnits="userSpaceOnUse" x="304" y="320" width="42" height="14">
<path d="M345.878 320.992H304.853V333.554H345.878V320.992Z" fill="white"/>
</mask>
<g mask="url(#mask45_378_11535)">
<mask id="mask46_378_11535" style="mask-type:luminance" maskUnits="userSpaceOnUse" x="304" y="320" width="42" height="14">
<path d="M345.878 320.992H304.853V333.554H345.878V320.992Z" fill="white"/>
</mask>
<g mask="url(#mask46_378_11535)">
<path d="M306.957 327.105H342.871" stroke="#010202" stroke-width="1.24912" stroke-miterlimit="10"/>
</g>
<mask id="mask47_378_11535" style="mask-type:luminance" maskUnits="userSpaceOnUse" x="304" y="320" width="42" height="14">
<path d="M345.878 320.992H304.853V333.554H345.878V320.992Z" fill="white"/>
</mask>
<g mask="url(#mask47_378_11535)">
<path d="M339.229 322.875L338.483 323.632L342.459 327.107L338.483 330.581L339.229 331.338L344.074 327.107L339.229 322.875Z" fill="#010202"/>
</g>
</g>
<path d="M303.254 270.169C312.807 267.914 318.722 258.341 316.467 248.788C314.211 239.236 304.639 233.32 295.086 235.576C285.533 237.832 279.618 247.404 281.873 256.957C284.129 266.51 293.702 272.425 303.254 270.169Z" stroke="white" stroke-width="4.4544" stroke-miterlimit="10"/>
<mask id="mask48_378_11535" style="mask-type:luminance" maskUnits="userSpaceOnUse" x="315" y="256" width="44" height="28">
<path d="M320.321 256.336L358.239 272.105L353.428 283.686L315.51 267.929L320.321 256.336Z" fill="white"/>
</mask>
<g mask="url(#mask48_378_11535)">
<mask id="mask49_378_11535" style="mask-type:luminance" maskUnits="userSpaceOnUse" x="315" y="256" width="44" height="28">
<path d="M320.32 256.348L315.503 267.938L353.427 283.7L358.244 272.111L320.32 256.348Z" fill="white"/>
</mask>
<g mask="url(#mask49_378_11535)">
<path d="M319.919 262.781L353.126 276.579" stroke="#010202" stroke-width="1.24912" stroke-miterlimit="10"/>
</g>
<mask id="mask50_378_11535" style="mask-type:luminance" maskUnits="userSpaceOnUse" x="315" y="256" width="44" height="28">
<path d="M320.32 256.348L315.503 267.938L353.427 283.7L358.244 272.111L320.32 256.348Z" fill="white"/>
</mask>
<g mask="url(#mask50_378_11535)">
<path d="M351.377 271.281L350.386 271.693L352.736 276.426L347.725 278.096L348.126 279.088L354.228 277.039L351.377 271.281Z" fill="#010202"/>
</g>
</g>
<path d="M349.887 200.788C359.739 200.788 367.727 192.831 367.727 183.015C367.727 173.199 359.739 165.242 349.887 165.242C340.034 165.242 332.047 173.199 332.047 183.015C332.047 192.831 340.034 200.788 349.887 200.788Z" stroke="white" stroke-width="4.4544" stroke-miterlimit="10"/>
<mask id="mask51_378_11535" style="mask-type:luminance" maskUnits="userSpaceOnUse" x="357" y="197" width="38" height="40">
<path d="M367.181 197.078L357.755 205.363L384.869 236.21L394.295 227.925L367.181 197.078Z" fill="white"/>
</mask>
<g mask="url(#mask51_378_11535)">
<mask id="mask52_378_11535" style="mask-type:luminance" maskUnits="userSpaceOnUse" x="357" y="197" width="38" height="40">
<path d="M367.178 197.084L357.753 205.371L384.871 236.214L394.296 227.927L367.178 197.084Z" fill="white"/>
</mask>
<g mask="url(#mask52_378_11535)">
<path d="M363.974 202.668L387.716 229.673" stroke="#010202" stroke-width="1.24912" stroke-miterlimit="10"/>
</g>
<mask id="mask53_378_11535" style="mask-type:luminance" maskUnits="userSpaceOnUse" x="357" y="197" width="38" height="40">
<path d="M367.178 197.084L357.753 205.371L384.871 236.214L394.296 227.927L367.178 197.084Z" fill="white"/>
</mask>
<g mask="url(#mask53_378_11535)">
<path d="M388.484 224.138L387.415 224.082L387.437 229.349L382.204 228.659L382.137 229.717L388.507 230.574L388.484 224.138Z" fill="#010202"/>
</g>
</g>
<path d="M473.362 410.926C520.523 410.926 558.753 372.695 558.753 325.535C558.753 278.375 520.523 240.145 473.362 240.145C426.202 240.145 387.972 278.375 387.972 325.535C387.972 372.695 426.202 410.926 473.362 410.926Z" fill="#006D78"/>
<path d="M473.363 377.863C502.228 377.863 525.691 354.4 525.691 325.535C525.691 296.671 502.228 273.207 473.363 273.207C470.835 273.207 468.33 273.396 465.891 273.753V288.742V320.68H480.835V288.731C497.974 292.216 510.903 307.383 510.903 325.535C510.903 346.237 494.065 363.075 473.363 363.075C452.661 363.075 435.824 346.237 435.824 325.535H421.035C421.035 354.4 444.499 377.863 473.363 377.863Z" fill="white"/>
</g>
<defs>
<clipPath id="clip0_378_11535">
<rect width="900" height="540" fill="white"/>
</clipPath>
<clipPath id="clip1_378_11535">
<rect width="66.816" height="22.272" fill="white" transform="translate(697.252 390.234)"/>
</clipPath>
<clipPath id="clip2_378_11535">
<rect width="177.062" height="22.272" fill="white" transform="translate(642.563 159.887)"/>
</clipPath>
<clipPath id="clip3_378_11535">
<rect width="183.744" height="22.272" fill="white" transform="translate(111.811 463.844)"/>
</clipPath>
<clipPath id="clip4_378_11535">
<rect width="195.994" height="22.272" fill="white" transform="translate(52.4219 234.176)"/>
</clipPath>
<clipPath id="clip5_378_11535">
<rect width="131.405" height="44.544" fill="white" transform="translate(695.57 221.992)"/>
</clipPath>
</defs>
</svg>
