<svg width="191" height="43" fill="none" xmlns="http://www.w3.org/2000/svg"><g clip-path="url(#a)" fill="#fff"><path d="M126.869 9.325c-.706-.509-1.135-1.218-1.287-2.129h1.265c.21.58.527 1.009.956 1.276.424.268.992.406 1.702.406.684 0 1.238-.124 1.658-.374.42-.25.635-.571.635-.968 0-.344-.157-.625-.47-.84-.312-.213-.826-.392-1.546-.535l-.96-.178c-1.006-.178-1.756-.482-2.252-.915-.496-.432-.747-.972-.747-1.61 0-.487.148-.92.443-1.29.295-.37.71-.66 1.242-.865.532-.205 1.144-.308 1.836-.308.903 0 1.69.223 2.355.665.666.441 1.104 1.062 1.319 1.865h-1.328c-.169-.429-.469-.754-.907-.982-.433-.223-.934-.334-1.501-.334-.666 0-1.193.116-1.577.348-.385.232-.577.548-.577.954 0 .33.152.594.46.794.309.201.796.362 1.462.482l.96.165c1.064.179 1.846.482 2.342.91.496.429.746.982.746 1.656 0 .504-.152.95-.46 1.338-.309.388-.738.692-1.287.91-.55.219-1.175.33-1.886.33-1.023-.008-1.89-.263-2.596-.771zM140.319 3.645v6.318h-1.139V8.95c-.237.343-.536.62-.907.83-.367.205-.76.307-1.184.307-.514 0-.979-.111-1.386-.33a2.368 2.368 0 0 1-.974-.99c-.241-.442-.362-.982-.362-1.624V3.645h1.202v3.476c0 .557.166.999.492 1.325.33.33.742.49 1.242.49.362 0 .679-.084.956-.258a1.75 1.75 0 0 0 .635-.7c.147-.295.223-.617.223-.96V3.645h1.202zM142.218 5.14a3.23 3.23 0 0 1 1.215-1.187 3.423 3.423 0 0 1 1.707-.437 3.16 3.16 0 0 1 1.895.611c.563.41.929.941 1.108 1.597h-1.318a1.77 1.77 0 0 0-.688-.803 1.98 1.98 0 0 0-1.059-.299 1.99 1.99 0 0 0-1.064.286c-.313.187-.558.45-.733.785-.178.335-.263.7-.263 1.106 0 .406.089.772.263 1.107.179.334.42.593.733.785a2.03 2.03 0 0 0 1.064.286c.388 0 .741-.099 1.059-.3.317-.196.545-.463.688-.802h1.318a2.836 2.836 0 0 1-1.108 1.597 3.131 3.131 0 0 1-1.895.611 3.412 3.412 0 0 1-1.707-.437 3.22 3.22 0 0 1-1.658-2.85 3.2 3.2 0 0 1 .443-1.656zM149.408 5.14c.295-.5.702-.897 1.216-1.187a3.42 3.42 0 0 1 1.707-.437 3.16 3.16 0 0 1 1.894.611c.563.41.93.941 1.108 1.597h-1.318a1.765 1.765 0 0 0-.688-.803 1.975 1.975 0 0 0-1.059-.299 1.983 1.983 0 0 0-1.796 1.071c-.179.335-.264.7-.264 1.106 0 .406.089.772.264 1.107.178.334.42.593.733.785.312.187.665.286 1.063.286.389 0 .742-.099 1.059-.3.317-.196.545-.463.688-.802h1.318a2.832 2.832 0 0 1-1.108 1.597 3.13 3.13 0 0 1-1.894.611 3.41 3.41 0 0 1-1.707-.437 3.22 3.22 0 0 1-1.658-2.85c0-.608.147-1.152.442-1.656zM161.097 3.935c.487.277.858.674 1.122 1.182.264.509.393 1.107.393 1.79 0 .178-.004.307-.013.392h-5.193c.085.49.313.892.689 1.21.375.316.813.472 1.309.472.818 0 1.398-.299 1.747-.897h1.242c-.201.59-.576 1.071-1.126 1.446a3.226 3.226 0 0 1-1.859.562 3.336 3.336 0 0 1-1.671-.424 3.032 3.032 0 0 1-1.166-1.173 3.42 3.42 0 0 1-.416-1.687c0-.624.139-1.187.416-1.686.277-.5.666-.893 1.157-1.174a3.308 3.308 0 0 1 1.667-.423c.652-.01 1.22.129 1.702.41zm-3.011 1.111a2.004 2.004 0 0 0-.666 1.2h3.887c-.049-.504-.254-.91-.612-1.213-.357-.304-.8-.456-1.322-.456-.501 0-.93.157-1.287.469zM164.351 9.525c-.545-.374-.858-.896-.943-1.561h1.202c.112.361.313.629.612.803.3.174.693.259 1.185.259.455 0 .822-.072 1.099-.223.277-.148.415-.34.415-.576a.653.653 0 0 0-.286-.562c-.187-.138-.54-.25-1.059-.335l-.719-.125c-1.519-.267-2.279-.879-2.279-1.833 0-.558.246-1.004.733-1.348.491-.339 1.13-.513 1.926-.513.715 0 1.327.165 1.836.5.505.335.827.794.961 1.383h-1.278c-.103-.254-.295-.45-.581-.589a2.152 2.152 0 0 0-.947-.21c-.438 0-.787.067-1.046.197s-.384.308-.384.535c0 .2.098.37.29.5.192.13.505.227.939.299l.733.125c.862.142 1.47.379 1.823.7.353.326.531.75.531 1.272 0 .557-.245 1.003-.741 1.347-.492.339-1.167.513-2.02.513-.787.005-1.457-.183-2.002-.558zM170.857 9.525c-.545-.374-.858-.896-.943-1.561h1.202c.112.361.313.629.612.803.3.174.693.259 1.184.259.456 0 .823-.072 1.1-.223.277-.148.415-.34.415-.576a.655.655 0 0 0-.286-.562c-.187-.138-.54-.25-1.059-.335l-.719-.125c-1.52-.267-2.279-.879-2.279-1.833 0-.558.246-1.004.733-1.348.491-.339 1.13-.513 1.926-.513.715 0 1.327.165 1.836.5.505.335.827.794.961 1.383h-1.278c-.103-.254-.295-.45-.581-.589a2.152 2.152 0 0 0-.947-.21c-.438 0-.787.067-1.046.197s-.384.308-.384.535c0 .2.098.37.29.5.192.13.505.227.939.299l.732.125c.863.142 1.471.379 1.824.7.353.326.531.75.531 1.272 0 .557-.245 1.003-.741 1.347-.492.339-1.167.513-2.02.513-.787.005-1.457-.183-2.002-.558zM178.873 2.342c-.139.143-.21.348-.21.62v.683h1.774v1.138h-1.774v5.184h-1.202V4.783h-1.265V3.645h1.265v-.683c0-.646.179-1.137.532-1.472.353-.334.875-.5 1.568-.5.34 0 .63.036.871.112V2.2a4.125 4.125 0 0 0-.835-.076c-.344.004-.586.076-.724.218zM187.269 3.645v6.318h-1.139V8.95c-.237.343-.536.62-.907.83-.367.205-.76.307-1.184.307-.514 0-.979-.111-1.386-.33-.411-.218-.732-.548-.974-.99-.241-.442-.362-.982-.362-1.624V3.645h1.202v3.476c0 .557.166.999.492 1.325.331.33.742.49 1.242.49.362 0 .679-.084.956-.258.273-.174.488-.406.635-.7.147-.295.223-.617.223-.96V3.645h1.202zM190.5 1.053v8.91h-1.202v-8.91h1.202zM132.106 21.46c.21.339.317.732.317 1.169 0 .482-.111.91-.335 1.285a2.328 2.328 0 0 1-.983.892c-.429.219-.947.33-1.546.33h-3.977v-8.851h3.964c.572 0 1.068.107 1.479.316.411.21.728.495.942.861.215.362.322.772.322 1.227 0 .42-.094.799-.277 1.125-.188.33-.469.597-.849.807.42.214.733.495.943.839zm-2.623-1.312c.505 0 .889-.12 1.144-.361.259-.241.384-.59.384-1.044 0-.866-.509-1.303-1.532-1.303h-2.632v2.704h2.636v.004zm1.207 3.467c.268-.237.406-.58.406-1.035 0-.438-.134-.768-.406-.99-.269-.224-.666-.335-1.189-.335h-2.645v2.717h2.645c.518-.005.916-.12 1.189-.357zM139.828 18.81v6.317h-1.139v-1.012c-.237.343-.537.62-.908.83a2.376 2.376 0 0 1-1.184.307c-.514 0-.978-.111-1.385-.33a2.368 2.368 0 0 1-.974-.99c-.241-.442-.362-.982-.362-1.624v-3.503h1.202v3.476c0 .558.165 1 .492 1.325.33.33.741.49 1.242.49.362 0 .679-.084.956-.258a1.75 1.75 0 0 0 .635-.7c.147-.295.223-.616.223-.96v-3.373h1.202v.005zM142.076 24.694c-.545-.374-.858-.896-.943-1.561h1.202c.112.361.313.629.612.803.299.174.693.259 1.184.259.456 0 .822-.072 1.099-.223.277-.148.416-.34.416-.576a.655.655 0 0 0-.286-.562c-.188-.138-.541-.25-1.059-.335l-.719-.125c-1.52-.267-2.279-.878-2.279-1.833 0-.558.245-1.004.732-1.348.492-.339 1.131-.513 1.926-.513.715 0 1.328.165 1.837.5.505.335.827.794.961 1.383h-1.278c-.103-.254-.295-.45-.581-.589a2.156 2.156 0 0 0-.948-.21c-.437 0-.786.067-1.045.197-.259.13-.384.308-.384.535 0 .2.098.37.29.5.192.13.505.227.938.299l.733.125c.863.142 1.47.379 1.823.7.353.326.532.75.532 1.272 0 .557-.246 1.003-.742 1.347-.491.34-1.166.513-2.019.513-.791.005-1.462-.183-2.002-.558zM149.573 16.285v1.392h-1.341v-1.392h1.341zm-.076 2.525v6.317h-1.202V18.81h1.202zM156.137 19.01c.412.22.733.55.975.991.241.442.362.982.362 1.624v3.502h-1.203v-3.475c0-.558-.165-1-.491-1.325-.331-.33-.742-.491-1.242-.491-.362 0-.684.085-.957.259a1.746 1.746 0 0 0-.634.7 2.111 2.111 0 0 0-.223.96v3.372h-1.203V18.81h1.14v1.013c.237-.344.536-.62.907-.83.366-.206.76-.308 1.184-.308.514 0 .974.107 1.385.326zM163.748 19.1c.487.276.858.673 1.121 1.182.264.509.394 1.107.394 1.79 0 .178-.005.307-.014.392h-5.192c.085.49.313.892.688 1.209.375.317.813.473 1.309.473.818 0 1.399-.3 1.747-.897h1.243c-.201.589-.577 1.07-1.126 1.446a3.228 3.228 0 0 1-1.859.562 3.333 3.333 0 0 1-1.671-.424 3.042 3.042 0 0 1-1.167-1.174 3.419 3.419 0 0 1-.415-1.686c0-.625.138-1.187.415-1.686.277-.5.666-.893 1.158-1.174a3.304 3.304 0 0 1 1.666-.424c.648-.004 1.216.134 1.703.41zm-3.016 1.115a2.004 2.004 0 0 0-.666 1.2h3.887c-.049-.504-.254-.91-.612-1.213-.357-.304-.8-.455-1.322-.455-.501 0-.925.156-1.287.468zM166.996 24.694c-.546-.374-.858-.896-.943-1.561h1.202c.111.361.313.629.612.803.299.174.693.259 1.184.259.456 0 .822-.072 1.099-.223.277-.148.416-.34.416-.576a.655.655 0 0 0-.286-.562c-.188-.138-.541-.25-1.059-.335l-.72-.125c-1.519-.267-2.278-.878-2.278-1.833 0-.558.245-1.004.732-1.348.492-.339 1.131-.513 1.926-.513.715 0 1.327.165 1.837.5.505.335.827.794.961 1.383h-1.278c-.103-.254-.295-.45-.581-.589a2.156 2.156 0 0 0-.948-.21c-.438 0-.786.067-1.045.197-.259.13-.385.308-.385.535 0 .2.099.37.291.5.192.13.505.227.938.299l.733.125c.863.142 1.47.379 1.823.7.353.326.532.75.532 1.272 0 .557-.246 1.003-.742 1.347-.491.34-1.166.513-2.02.513-.786.005-1.456-.183-2.001-.558zM173.506 24.694c-.545-.374-.858-.896-.943-1.561h1.203c.111.361.312.629.612.803.299.174.692.259 1.184.259.456 0 .822-.072 1.099-.223.277-.148.416-.34.416-.576a.655.655 0 0 0-.286-.562c-.188-.138-.541-.25-1.059-.335l-.72-.125c-1.519-.267-2.279-.878-2.279-1.833 0-.558.246-1.004.733-1.348.492-.339 1.131-.513 1.926-.513.715 0 1.327.165 1.837.5.505.335.826.794.96 1.383h-1.278c-.102-.254-.295-.45-.581-.589a2.152 2.152 0 0 0-.947-.21c-.438 0-.786.067-1.046.197-.259.13-.384.308-.384.535 0 .2.098.37.291.5.192.13.505.227.938.299l.733.125c.862.142 1.47.379 1.823.7.353.326.532.75.532 1.272 0 .557-.246 1.003-.742 1.347-.492.34-1.166.513-2.02.513-.791.005-1.461-.183-2.002-.558zM134.38 35.746v4.55h-1.139v-1.49a3.752 3.752 0 0 1-1.336 1.183c-.545.29-1.162.437-1.854.437-.827 0-1.582-.201-2.266-.603a4.344 4.344 0 0 1-1.613-1.641 4.606 4.606 0 0 1-.59-2.307c0-.843.201-1.61.603-2.307a4.389 4.389 0 0 1 1.64-1.641 4.515 4.515 0 0 1 2.306-.603c.885 0 1.685.241 2.4.718a4.03 4.03 0 0 1 1.537 1.932h-1.444a2.97 2.97 0 0 0-1.036-1.057 2.765 2.765 0 0 0-1.457-.384 3.132 3.132 0 0 0-2.788 1.65 3.421 3.421 0 0 0-.425 1.688c0 .615.139 1.177.416 1.686.277.509.657.91 1.139 1.209a3.004 3.004 0 0 0 1.595.442c.787 0 1.439-.223 1.971-.665a3.12 3.12 0 0 0 1.046-1.65h-3.151V35.74h4.446v.005zM137.37 39.989a3.22 3.22 0 0 1-1.658-2.85c0-.608.147-1.161.442-1.666.295-.5.702-.896 1.216-1.186a3.423 3.423 0 0 1 1.707-.438c.616 0 1.179.148 1.689.438a3.22 3.22 0 0 1 1.653 2.85 3.231 3.231 0 0 1-1.653 2.852c-.51.29-1.073.437-1.689.437a3.47 3.47 0 0 1-1.707-.438zm2.77-.964a2.04 2.04 0 0 0 .76-.785c.183-.335.277-.7.277-1.107 0-.406-.094-.772-.277-1.106a2.072 2.072 0 0 0-.76-.785 2.075 2.075 0 0 0-1.063-.286c-.398 0-.76.094-1.082.285-.326.188-.581.451-.764.786-.187.334-.277.7-.277 1.106 0 .406.094.772.277 1.107.188.334.443.593.764.785.327.187.684.285 1.082.285.388 0 .741-.093 1.063-.285zM149.698 33.979v6.317h-1.202v-.946c-.263.34-.576.603-.947.79a2.606 2.606 0 0 1-1.188.286 2.837 2.837 0 0 1-1.52-.424 2.995 2.995 0 0 1-1.077-1.169c-.263-.495-.393-1.062-.393-1.695 0-.634.13-1.196.393-1.696a2.995 2.995 0 0 1 1.077-1.169 2.838 2.838 0 0 1 1.52-.424c.437 0 .849.103 1.228.304.38.2.706.486.974.848v-1.022h1.135zm-2.127 5.055c.304-.188.541-.446.711-.776.17-.335.255-.706.255-1.12 0-.415-.085-.786-.255-1.12a1.873 1.873 0 0 0-.711-.776 1.93 1.93 0 0 0-1.014-.277c-.371 0-.706.094-1.001.276a1.96 1.96 0 0 0-.697.777c-.17.334-.255.705-.255 1.12 0 .415.085.785.255 1.12.17.334.402.593.697.776.295.187.63.276 1.001.276a1.92 1.92 0 0 0 1.014-.276zM152.925 31.387v8.91h-1.202v-8.91h1.202zM6.483 38.824c-3.28-2.373-5.277-5.68-5.983-9.918h5.898c.983 2.708 2.467 4.69 4.451 5.947 1.984 1.258 4.63 1.883 7.932 1.883 3.186 0 5.76-.58 7.726-1.735 1.966-1.156 2.949-2.66 2.949-4.502 0-1.61-.729-2.913-2.18-3.917-1.458-1-3.853-1.834-7.195-2.503l-4.482-.826c-4.678-.825-8.177-2.248-10.496-4.27-2.324-2.02-3.481-4.523-3.481-7.504 0-2.275.688-4.278 2.064-6.005 1.376-1.726 3.302-3.07 5.778-4.033C11.939.481 14.79 0 18.012 0c4.205 0 7.86 1.03 10.966 3.092 3.105 2.061 5.147 4.957 6.13 8.682H28.92c-.787-2.003-2.195-3.52-4.214-4.564-2.024-1.04-4.352-1.562-6.989-1.562-3.105 0-5.554.54-7.342 1.62-1.787 1.08-2.68 2.56-2.68 4.443 0 1.53.714 2.767 2.153 3.708 1.434.941 3.704 1.686 6.81 2.235l4.482.768c4.951.825 8.588 2.235 10.907 4.238 2.32 2.003 3.482 4.573 3.482 7.714 0 2.356-.72 4.435-2.154 6.242-1.435 1.806-3.432 3.216-5.984 4.238-2.556 1.022-5.482 1.53-8.785 1.53-4.799 0-8.838-1.186-12.123-3.56zM69.234 24.784c1.006 1.628 1.51 3.489 1.51 5.581 0 2.293-.535 4.337-1.599 6.126-1.068 1.789-2.627 3.208-4.683 4.256s-4.513 1.57-7.373 1.57H38.111V.071h18.915c2.74 0 5.099.505 7.07 1.508 1.975 1.004 3.476 2.374 4.504 4.105 1.028 1.731 1.541 3.68 1.541 5.853 0 2.013-.442 3.802-1.331 5.372-.885 1.57-2.234 2.856-4.049 3.864 1.975 1.044 3.464 2.378 4.473 4.01zm-12.511-6.246c2.417 0 4.24-.572 5.469-1.718 1.229-1.147 1.845-2.806 1.845-4.98 0-4.144-2.44-6.214-7.314-6.214h-12.57v12.912h12.57zm5.742 16.534c1.286-1.124 1.934-2.775 1.934-4.948 0-2.092-.643-3.672-1.934-4.738-1.292-1.066-3.182-1.597-5.68-1.597H44.153v12.974h12.632c2.498-.005 4.388-.567 5.68-1.691zM72.147 21.192c0 11.645 9.491 21.121 21.154 21.121s21.154-9.476 21.154-21.12c0-1.027-.076-2.03-.214-3.017H95.267v6.032h12.91c-1.403 6.916-7.538 12.136-14.876 12.136-8.37 0-15.175-6.8-15.175-15.152s6.81-15.151 15.175-15.151V.07c-11.663 0-21.154 9.477-21.154 21.121z"/></g><defs><clipPath id="a"><path fill="currentColor" transform="translate(.5)" d="M0 0h190v42.384H0z"/></clipPath></defs></svg>