<svg width="32" height="32" fill="none" xmlns="http://www.w3.org/2000/svg"><path d="M16 17.867 9.465 24.4c-.245.244-.556.367-.934.367-.377 0-.688-.123-.933-.367-.244-.244-.367-.556-.367-.933 0-.378.123-.69.367-.934L14.132 16 7.6 9.467c-.244-.245-.367-.556-.367-.934 0-.377.123-.689.367-.933.245-.244.556-.367.933-.367.378 0 .69.123.934.367l6.533 6.533L22.532 7.6c.245-.244.556-.367.934-.367.377 0 .689.123.933.367.244.244.367.556.367.933 0 .378-.122.69-.367.934L17.866 16l6.533 6.533c.244.245.367.556.367.934 0 .377-.122.689-.367.933-.244.244-.556.367-.933.367-.378 0-.69-.123-.934-.367L16 17.867z" fill="currentColor"/></svg>